  0
SECTION
  2
HEADER
  9
$ACADVER
  1
AC1024
  9
$ACADMAINTVER
 70
6
  9
$DWGCODEPAGE
  3
ANSI_1252
  9
$LASTSAVEDBY
  1
ezdxf
  9
$INSBASE
 10
0.0
 20
0.0
 30
0.0
  9
$EXTMIN
 10
1e+20
 20
1e+20
 30
1e+20
  9
$EXTMAX
 10
-1e+20
 20
-1e+20
 30
-1e+20
  9
$LIMMIN
 10
0.0
 20
0.0
  9
$LIMMAX
 10
420.0
 20
297.0
  9
$ORTHOMODE
 70
0
  9
$REGENMODE
 70
1
  9
$FILLMODE
 70
1
  9
$QTEXTMODE
 70
0
  9
$MIRRTEXT
 70
1
  9
$LTSCALE
 40
1.0
  9
$ATTMODE
 70
1
  9
$TEXTSIZE
 40
2.5
  9
$TRACEWID
 40
1.0
  9
$TEXTSTYLE
  7
Standard
  9
$CLAYER
  8
0
  9
$CELTYPE
  6
ByLayer
  9
$CECOLOR
 62
256
  9
$CELTSCALE
 40
1.0
  9
$DISPSILH
 70
0
  9
$DIMSCALE
 40
1.0
  9
$DIMASZ
 40
2.5
  9
$DIMEXO
 40
0.625
  9
$DIMDLI
 40
3.75
  9
$DIMRND
 40
0.0
  9
$DIMDLE
 40
0.0
  9
$DIMEXE
 40
1.25
  9
$DIMTP
 40
0.0
  9
$DIMTM
 40
0.0
  9
$DIMTXT
 40
2.5
  9
$DIMCEN
 40
2.5
  9
$DIMTSZ
 40
0.0
  9
$DIMTOL
 70
0
  9
$DIMLIM
 70
0
  9
$DIMTIH
 70
0
  9
$DIMTOH
 70
0
  9
$DIMSE1
 70
0
  9
$DIMSE2
 70
0
  9
$DIMTAD
 70
1
  9
$DIMZIN
 70
8
  9
$DIMBLK
  1

  9
$DIMASO
 70
1
  9
$DIMSHO
 70
1
  9
$DIMPOST
  1

  9
$DIMAPOST
  1

  9
$DIMALT
 70
0
  9
$DIMALTD
 70
3
  9
$DIMALTF
 40
0.03937007874
  9
$DIMLFAC
 40
1.0
  9
$DIMTOFL
 70
1
  9
$DIMTVP
 40
0.0
  9
$DIMTIX
 70
0
  9
$DIMSOXD
 70
0
  9
$DIMSAH
 70
0
  9
$DIMBLK1
  1

  9
$DIMBLK2
  1

  9
$DIMSTYLE
  2
ISO-25
  9
$DIMCLRD
 70
0
  9
$DIMCLRE
 70
0
  9
$DIMCLRT
 70
0
  9
$DIMTFAC
 40
1.0
  9
$DIMGAP
 40
0.625
  9
$DIMJUST
 70
0
  9
$DIMSD1
 70
0
  9
$DIMSD2
 70
0
  9
$DIMTOLJ
 70
0
  9
$DIMTZIN
 70
8
  9
$DIMALTZ
 70
0
  9
$DIMALTTZ
 70
0
  9
$DIMUPT
 70
0
  9
$DIMDEC
 70
2
  9
$DIMTDEC
 70
2
  9
$DIMALTU
 70
2
  9
$DIMALTTD
 70
3
  9
$DIMTXSTY
  7
Standard
  9
$DIMAUNIT
 70
0
  9
$DIMADEC
 70
0
  9
$DIMALTRND
 40
0.0
  9
$DIMAZIN
 70
0
  9
$DIMDSEP
 70
44
  9
$DIMATFIT
 70
3
  9
$DIMFRAC
 70
0
  9
$DIMLDRBLK
  1

  9
$DIMLUNIT
 70
2
  9
$DIMLWD
 70
-2
  9
$DIMLWE
 70
-2
  9
$DIMTMOVE
 70
0
  9
$DIMFXL
 40
1.0
  9
$DIMFXLON
 70
0
  9
$DIMJOGANG
 40
0.785398163397
  9
$DIMTFILL
 70
0
  9
$DIMTFILLCLR
 70
0
  9
$DIMARCSYM
 70
0
  9
$DIMLTYPE
  6

  9
$DIMLTEX1
  6

  9
$DIMLTEX2
  6

  9
$DIMTXTDIRECTION
 70
0
  9
$LUNITS
 70
2
  9
$LUPREC
 70
4
  9
$SKETCHINC
 40
1.0
  9
$FILLETRAD
 40
10.0
  9
$AUNITS
 70
0
  9
$AUPREC
 70
2
  9
$MENU
  1
.
  9
$ELEVATION
 40
0.0
  9
$PELEVATION
 40
0.0
  9
$THICKNESS
 40
0.0
  9
$LIMCHECK
 70
0
  9
$CHAMFERA
 40
0.0
  9
$CHAMFERB
 40
0.0
  9
$CHAMFERC
 40
0.0
  9
$CHAMFERD
 40
0.0
  9
$SKPOLY
 70
0
  9
$TDCREATE
 40
2461039.4677430554
  9
$TDUCREATE
 40
2458532.153996898
  9
$TDUPDATE
 40
2461039.4677430554
  9
$TDUUPDATE
 40
2458532.1544311
  9
$TDINDWG
 40
0.0
  9
$TDUSRTIMER
 40
0.0
  9
$USRTIMER
 70
1
  9
$ANGBASE
 50
0.0
  9
$ANGDIR
 70
0
  9
$PDMODE
 70
0
  9
$PDSIZE
 40
0.0
  9
$PLINEWID
 40
0.0
  9
$SPLFRAME
 70
0
  9
$SPLINETYPE
 70
6
  9
$SPLINESEGS
 70
8
  9
$HANDSEED
  5
271
  9
$SURFTAB1
 70
6
  9
$SURFTAB2
 70
6
  9
$SURFTYPE
 70
6
  9
$SURFU
 70
6
  9
$SURFV
 70
6
  9
$UCSBASE
  2

  9
$UCSNAME
  2

  9
$UCSORG
 10
0.0
 20
0.0
 30
0.0
  9
$UCSXDIR
 10
1.0
 20
0.0
 30
0.0
  9
$UCSYDIR
 10
0.0
 20
1.0
 30
0.0
  9
$UCSORTHOREF
  2

  9
$UCSORTHOVIEW
 70
0
  9
$UCSORGTOP
 10
0.0
 20
0.0
 30
0.0
  9
$UCSORGBOTTOM
 10
0.0
 20
0.0
 30
0.0
  9
$UCSORGLEFT
 10
0.0
 20
0.0
 30
0.0
  9
$UCSORGRIGHT
 10
0.0
 20
0.0
 30
0.0
  9
$UCSORGFRONT
 10
0.0
 20
0.0
 30
0.0
  9
$UCSORGBACK
 10
0.0
 20
0.0
 30
0.0
  9
$PUCSBASE
  2

  9
$PUCSNAME
  2

  9
$PUCSORG
 10
0.0
 20
0.0
 30
0.0
  9
$PUCSXDIR
 10
1.0
 20
0.0
 30
0.0
  9
$PUCSYDIR
 10
0.0
 20
1.0
 30
0.0
  9
$PUCSORTHOREF
  2

  9
$PUCSORTHOVIEW
 70
0
  9
$PUCSORGTOP
 10
0.0
 20
0.0
 30
0.0
  9
$PUCSORGBOTTOM
 10
0.0
 20
0.0
 30
0.0
  9
$PUCSORGLEFT
 10
0.0
 20
0.0
 30
0.0
  9
$PUCSORGRIGHT
 10
0.0
 20
0.0
 30
0.0
  9
$PUCSORGFRONT
 10
0.0
 20
0.0
 30
0.0
  9
$PUCSORGBACK
 10
0.0
 20
0.0
 30
0.0
  9
$USERI1
 70
0
  9
$USERI2
 70
0
  9
$USERI3
 70
0
  9
$USERI4
 70
0
  9
$USERI5
 70
0
  9
$USERR1
 40
0.0
  9
$USERR2
 40
0.0
  9
$USERR3
 40
0.0
  9
$USERR4
 40
0.0
  9
$USERR5
 40
0.0
  9
$WORLDVIEW
 70
1
  9
$SHADEDGE
 70
3
  9
$SHADEDIF
 70
70
  9
$TILEMODE
 70
1
  9
$MAXACTVP
 70
64
  9
$PINSBASE
 10
0.0
 20
0.0
 30
0.0
  9
$PLIMCHECK
 70
0
  9
$PEXTMIN
 10
1e+20
 20
1e+20
 30
1e+20
  9
$PEXTMAX
 10
-1e+20
 20
-1e+20
 30
-1e+20
  9
$PLIMMIN
 10
0.0
 20
0.0
  9
$PLIMMAX
 10
420.0
 20
297.0
  9
$UNITMODE
 70
0
  9
$VISRETAIN
 70
1
  9
$PLINEGEN
 70
0
  9
$PSLTSCALE
 70
1
  9
$TREEDEPTH
 70
3020
  9
$CMLSTYLE
  2
Standard
  9
$CMLJUST
 70
0
  9
$CMLSCALE
 40
20.0
  9
$PROXYGRAPHICS
 70
1
  9
$MEASUREMENT
 70
1
  9
$CELWEIGHT
370
-1
  9
$ENDCAPS
280
0
  9
$JOINSTYLE
280
0
  9
$LWDISPLAY
290
0
  9
$INSUNITS
 70
6
  9
$HYPERLINKBASE
  1

  9
$STYLESHEET
  1

  9
$XEDIT
290
1
  9
$CEPSNTYPE
380
0
  9
$PSTYLEMODE
290
1
  9
$FINGERPRINTGUID
  2
{5D6BB57F-3DC8-49BA-B9F3-2B04F48BA6DE}
  9
$VERSIONGUID
  2
{78CA4459-8B4F-49E6-9D92-9CB07A87CEAF}
  9
$EXTNAMES
290
1
  9
$PSVPSCALE
 40
0.0
  9
$OLESTARTUP
290
0
  9
$SORTENTS
280
127
  9
$INDEXCTL
280
0
  9
$HIDETEXT
280
1
  9
$XCLIPFRAME
280
1
  9
$HALOGAP
280
0
  9
$OBSCOLOR
 70
257
  9
$OBSLTYPE
280
0
  9
$INTERSECTIONDISPLAY
280
0
  9
$INTERSECTIONCOLOR
 70
257
  9
$DIMASSOC
280
2
  9
$PROJECTNAME
  1

  9
$CAMERADISPLAY
290
0
  9
$LENSLENGTH
 40
50.0
  9
$CAMERAHEIGHT
 40
0.0
  9
$STEPSPERSEC
 40
24.0
  9
$STEPSIZE
 40
100.0
  9
$3DDWFPREC
 40
2.0
  9
$PSOLWIDTH
 40
0.005
  9
$PSOLHEIGHT
 40
0.08
  9
$LOFTANG1
 40
1.570796326795
  9
$LOFTANG2
 40
1.570796326795
  9
$LOFTMAG1
 40
0.0
  9
$LOFTMAG2
 40
0.0
  9
$LOFTPARAM
 70
7
  9
$LOFTNORMALS
280
1
  9
$LATITUDE
 40
37.795
  9
$LONGITUDE
 40
-122.394
  9
$NORTHDIRECTION
 40
0.0
  9
$TIMEZONE
 70
-8000
  9
$LIGHTGLYPHDISPLAY
280
1
  9
$TILEMODELIGHTSYNCH
280
1
  9
$CMATERIAL
347
20
  9
$SOLIDHIST
280
0
  9
$SHOWHIST
280
1
  9
$DWFFRAME
280
2
  9
$DGNFRAME
280
2
  9
$REALWORLDSCALE
290
1
  9
$INTERFERECOLOR
 62
256
  9
$CSHADOW
280
0
  9
$SHADOWPLANELOCATION
 40
0.0
  0
ENDSEC
  0
SECTION
  2
CLASSES
  0
CLASS
  1
ACDBDICTIONARYWDFLT
  2
AcDbDictionaryWithDefault
  3
ObjectDBX Classes
 90
0
 91
0
280
0
281
0
  0
CLASS
  1
SUN
  2
AcDbSun
  3
SCENEOE
 90
1153
 91
0
280
0
281
0
  0
CLASS
  1
VISUALSTYLE
  2
AcDbVisualStyle
  3
ObjectDBX Classes
 90
4095
 91
0
280
0
281
0
  0
CLASS
  1
MATERIAL
  2
AcDbMaterial
  3
ObjectDBX Classes
 90
1153
 91
0
280
0
281
0
  0
CLASS
  1
SCALE
  2
AcDbScale
  3
ObjectDBX Classes
 90
1153
 91
0
280
0
281
0
  0
CLASS
  1
TABLESTYLE
  2
AcDbTableStyle
  3
ObjectDBX Classes
 90
4095
 91
0
280
0
281
0
  0
CLASS
  1
MLEADERSTYLE
  2
AcDbMLeaderStyle
  3
ACDB_MLEADERSTYLE_CLASS
 90
4095
 91
0
280
0
281
0
  0
CLASS
  1
DICTIONARYVAR
  2
AcDbDictionaryVar
  3
ObjectDBX Classes
 90
0
 91
0
280
0
281
0
  0
CLASS
  1
CELLSTYLEMAP
  2
AcDbCellStyleMap
  3
ObjectDBX Classes
 90
1152
 91
0
280
0
281
0
  0
CLASS
  1
MENTALRAYRENDERSETTINGS
  2
AcDbMentalRayRenderSettings
  3
SCENEOE
 90
1024
 91
0
280
0
281
0
  0
CLASS
  1
ACDBDETAILVIEWSTYLE
  2
AcDbDetailViewStyle
  3
ObjectDBX Classes
 90
1025
 91
0
280
0
281
0
  0
CLASS
  1
ACDBSECTIONVIEWSTYLE
  2
AcDbSectionViewStyle
  3
ObjectDBX Classes
 90
1025
 91
0
280
0
281
0
  0
CLASS
  1
RASTERVARIABLES
  2
AcDbRasterVariables
  3
ISM
 90
0
 91
0
280
0
281
0
  0
CLASS
  1
ACDBPLACEHOLDER
  2
AcDbPlaceHolder
  3
ObjectDBX Classes
 90
0
 91
0
280
0
281
0
  0
CLASS
  1
LAYOUT
  2
AcDbLayout
  3
ObjectDBX Classes
 90
0
 91
0
280
0
281
0
  0
ENDSEC
  0
SECTION
  2
TABLES
  0
TABLE
  2
VPORT
  5
8
330
0
100
AcDbSymbolTable
 70
1
  0
VPORT
  5
23
330
8
100
AcDbSymbolTableRecord
100
AcDbViewportTableRecord
  2
*Active
 70
0
 10
0.0
 20
0.0
 11
1.0
 21
1.0
 12
0.0
 22
0.0
 13
0.0
 23
0.0
 14
0.5
 24
0.5
 15
0.5
 25
0.5
 16
0.0
 26
0.0
 36
1.0
 17
0.0
 27
0.0
 37
0.0
 40
1000.0
 41
1.34
 42
50.0
 43
0.0
 44
0.0
 50
0.0
 51
0.0
 71
0
 72
1000
 73
1
 74
3
 75
0
 76
0
 77
0
 78
0
281
0
 65
0
146
0.0
  0
ENDTAB
  0
TABLE
  2
LTYPE
  5
2
330
0
100
AcDbSymbolTable
 70
4
  0
LTYPE
  5
24
330
2
100
AcDbSymbolTableRecord
100
AcDbLinetypeTableRecord
  2
ByBlock
 70
0
  3

 72
65
 73
0
 40
0.0
  0
LTYPE
  5
25
330
2
100
AcDbSymbolTableRecord
100
AcDbLinetypeTableRecord
  2
ByLayer
 70
0
  3

 72
65
 73
0
 40
0.0
  0
LTYPE
  5
26
330
2
100
AcDbSymbolTableRecord
100
AcDbLinetypeTableRecord
  2
Continuous
 70
0
  3

 72
65
 73
0
 40
0.0
  0
LTYPE
  5
31
330
2
100
AcDbSymbolTableRecord
100
AcDbLinetypeTableRecord
  2
DASHED
 70
0
  3
Dashed line
 72
65
 73
2
 40
0.5
 49
0.25
 74
0
 49
-0.25
 74
0
  0
ENDTAB
  0
TABLE
  2
LAYER
  5
1
330
0
100
AcDbSymbolTable
 70
6
  0
LAYER
  5
27
330
1
100
AcDbSymbolTableRecord
100
AcDbLayerTableRecord
  2
0
 70
0
 62
7
  6
Continuous
370
-3
390
13
347
21
  0
LAYER
  5
28
330
1
100
AcDbSymbolTableRecord
100
AcDbLayerTableRecord
  2
Defpoints
 70
0
 62
7
  6
Continuous
290
0
370
-3
390
13
347
21
  0
LAYER
  5
2F
330
1
100
AcDbSymbolTableRecord
100
AcDbLayerTableRecord
  2
OUTLINE
 70
0
 62
7
  6
Continuous
370
-3
390
13
347
21
  0
LAYER
  5
30
330
1
100
AcDbSymbolTableRecord
100
AcDbLayerTableRecord
  2
DADOS
 70
0
 62
1
  6
DASHED
370
-3
390
13
347
21
  0
LAYER
  5
32
330
1
100
AcDbSymbolTableRecord
100
AcDbLayerTableRecord
  2
HOLES
 70
0
 62
3
  6
Continuous
370
-3
390
13
347
21
  0
LAYER
  5
33
330
1
100
AcDbSymbolTableRecord
100
AcDbLayerTableRecord
  2
LABELS
 70
0
 62
5
  6
Continuous
370
-3
390
13
347
21
  0
ENDTAB
  0
TABLE
  2
STYLE
  5
5
330
0
100
AcDbSymbolTable
 70
1
  0
STYLE
  5
29
330
5
100
AcDbSymbolTableRecord
100
AcDbTextStyleTableRecord
  2
Standard
 70
0
 40
0.0
 41
1.0
 50
0.0
 71
0
 42
2.5
  3
txt
  4

  0
ENDTAB
  0
TABLE
  2
VIEW
  5
7
330
0
100
AcDbSymbolTable
 70
0
  0
ENDTAB
  0
TABLE
  2
UCS
  5
6
330
0
100
AcDbSymbolTable
 70
0
  0
ENDTAB
  0
TABLE
  2
APPID
  5
3
330
0
100
AcDbSymbolTable
 70
3
  0
APPID
  5
2A
330
3
100
AcDbSymbolTableRecord
100
AcDbRegAppTableRecord
  2
ACAD
 70
0
  0
APPID
  5
26E
330
3
100
AcDbSymbolTableRecord
100
AcDbRegAppTableRecord
  2
HATCHBACKGROUNDCOLOR
 70
0
  0
APPID
  5
26F
330
3
100
AcDbSymbolTableRecord
100
AcDbRegAppTableRecord
  2
EZDXF
 70
0
  0
ENDTAB
  0
TABLE
  2
DIMSTYLE
  5
4
330
0
100
AcDbSymbolTable
 70
1
100
AcDbDimStyleTable
  0
DIMSTYLE
105
2B
330
4
100
AcDbSymbolTableRecord
100
AcDbDimStyleTableRecord
  2
Standard
 70
0
 40
1.0
 41
2.5
 42
0.625
 43
3.75
 44
1.25
 45
0.0
 46
0.0
 47
0.0
 48
0.0
 49
2.5
140
2.5
141
2.5
142
0.0
143
0.03937007874
144
1.0
145
0.0
146
1.0
147
0.625
148
0.0
 69
0
 70
0
 71
0
 72
0
 73
0
 74
0
 75
0
 76
0
 77
1
 78
8
 79
3
170
0
171
3
172
1
173
0
174
0
175
0
176
0
177
0
178
0
179
2
271
2
272
2
273
2
274
3
275
0
276
0
277
2
278
44
279
0
280
0
281
0
282
0
283
0
284
8
285
0
286
0
288
0
289
3
290
0
371
-2
372
-2
  0
ENDTAB
  0
TABLE
  2
BLOCK_RECORD
  5
9
330
0
100
AcDbSymbolTable
 70
2
  0
BLOCK_RECORD
  5
17
330
9
100
AcDbSymbolTableRecord
100
AcDbBlockTableRecord
  2
*Model_Space
340
1A
 70
0
280
1
281
0
  0
BLOCK_RECORD
  5
1B
330
9
100
AcDbSymbolTableRecord
100
AcDbBlockTableRecord
  2
*Paper_Space
340
1E
 70
0
280
1
281
0
  0
ENDTAB
  0
ENDSEC
  0
SECTION
  2
BLOCKS
  0
BLOCK
  5
18
330
17
100
AcDbEntity
  8
0
100
AcDbBlockBegin
  2
*Model_Space
 70
0
 10
0.0
 20
0.0
 30
0.0
  3
*Model_Space
  1

  0
ENDBLK
  5
19
330
17
100
AcDbEntity
  8
0
100
AcDbBlockEnd
  0
BLOCK
  5
1C
330
1B
100
AcDbEntity
  8
0
100
AcDbBlockBegin
  2
*Paper_Space
 70
0
 10
0.0
 20
0.0
 30
0.0
  3
*Paper_Space
  1

  0
ENDBLK
  5
1D
330
1B
100
AcDbEntity
  8
0
100
AcDbBlockEnd
  0
ENDSEC
  0
SECTION
  2
ENTITIES
  0
LWPOLYLINE
  5
34
330
17
100
AcDbEntity
  8
OUTLINE
100
AcDbPolyline
 90
5
 70
0
 10
0.0
 20
-95.0
 10
55.0
 20
-95.0
 10
55.0
 20
0.0
 10
0.0
 20
0.0
 10
0.0
 20
-95.0
  0
MTEXT
  5
35
330
17
100
AcDbEntity
  8
LABELS
100
AcDbMText
 10
27.5
 20
-47.5
 30
0.0
 40
1.0
 71
5
  1
Back\P55.000" x 95.000"
  0
LWPOLYLINE
  5
36
330
17
100
AcDbEntity
  8
OUTLINE
100
AcDbPolyline
 90
5
 70
0
 10
57.0
 20
-95.0
 10
83.375
 20
-95.0
 10
83.375
 20
-82.5
 10
57.0
 20
-82.5
 10
57.0
 20
-95.0
  0
MTEXT
  5
37
330
17
100
AcDbEntity
  8
LABELS
100
AcDbMText
 10
70.1875
 20
-88.75
 30
0.0
 40
1.0
 71
5
  1
Shelf\P26.375" x 12.500"
  0
LWPOLYLINE
  5
38
330
17
100
AcDbEntity
  8
OUTLINE
100
AcDbPolyline
 90
5
 70
0
 10
85.375
 20
-95.0
 10
111.75
 20
-95.0
 10
111.75
 20
-82.5
 10
85.375
 20
-82.5
 10
85.375
 20
-95.0
  0
MTEXT
  5
39
330
17
100
AcDbEntity
  8
LABELS
100
AcDbMText
 10
98.5625
 20
-88.75
 30
0.0
 40
1.0
 71
5
  1
Shelf\P26.375" x 12.500"
  0
LWPOLYLINE
  5
3A
330
17
100
AcDbEntity
  8
OUTLINE
100
AcDbPolyline
 90
5
 70
0
 10
113.75
 20
-95.0
 10
140.125
 20
-95.0
 10
140.125
 20
-82.5
 10
113.75
 20
-82.5
 10
113.75
 20
-95.0
  0
MTEXT
  5
3B
330
17
100
AcDbEntity
  8
LABELS
100
AcDbMText
 10
126.9375
 20
-88.75
 30
0.0
 40
1.0
 71
5
  1
Shelf\P26.375" x 12.500"
  0
LWPOLYLINE
  5
3C
330
17
100
AcDbEntity
  8
OUTLINE
100
AcDbPolyline
 90
5
 70
0
 10
0.0
 20
-109.5
 10
26.375
 20
-109.5
 10
26.375
 20
-97.0
 10
0.0
 20
-97.0
 10
0.0
 20
-109.5
  0
MTEXT
  5
3D
330
17
100
AcDbEntity
  8
LABELS
100
AcDbMText
 10
13.1875
 20
-103.25
 30
0.0
 40
1.0
 71
5
  1
Shelf\P26.375" x 12.500"
  0
LWPOLYLINE
  5
3E
330
17
100
AcDbEntity
  8
OUTLINE
100
AcDbPolyline
 90
5
 70
0
 10
28.375
 20
-109.5
 10
54.75
 20
-109.5
 10
54.75
 20
-97.0
 10
28.375
 20
-97.0
 10
28.375
 20
-109.5
  0
MTEXT
  5
3F
330
17
100
AcDbEntity
  8
LABELS
100
AcDbMText
 10
41.5625
 20
-103.25
 30
0.0
 40
1.0
 71
5
  1
Shelf\P26.375" x 12.500"
  0
LWPOLYLINE
  5
40
330
17
100
AcDbEntity
  8
OUTLINE
100
AcDbPolyline
 90
5
 70
0
 10
56.75
 20
-109.5
 10
83.125
 20
-109.5
 10
83.125
 20
-97.0
 10
56.75
 20
-97.0
 10
56.75
 20
-109.5
  0
MTEXT
  5
41
330
17
100
AcDbEntity
  8
LABELS
100
AcDbMText
 10
69.9375
 20
-103.25
 30
0.0
 40
1.0
 71
5
  1
Shelf\P26.375" x 12.500"
  0
LWPOLYLINE
  5
42
330
17
100
AcDbEntity
  8
OUTLINE
100
AcDbPolyline
 90
5
 70
0
 10
85.125
 20
-109.5
 10
111.5
 20
-109.5
 10
111.5
 20
-97.0
 10
85.125
 20
-97.0
 10
85.125
 20
-109.5
  0
MTEXT
  5
43
330
17
100
AcDbEntity
  8
LABELS
100
AcDbMText
 10
98.3125
 20
-103.25
 30
0.0
 40
1.0
 71
5
  1
Shelf\P26.375" x 12.500"
  0
LWPOLYLINE
  5
44
330
17
100
AcDbEntity
  8
OUTLINE
100
AcDbPolyline
 90
5
 70
0
 10
0.0
 20
-125.0
 10
26.375
 20
-125.0
 10
26.375
 20
-112.5
 10
0.0
 20
-112.5
 10
0.0
 20
-125.0
  0
MTEXT
  5
45
330
17
100
AcDbEntity
  8
LABELS
100
AcDbMText
 10
13.1875
 20
-118.75
 30
0.0
 40
1.0
 71
5
  1
Shelf\P26.375" x 12.500"
  0
LWPOLYLINE
  5
46
330
17
100
AcDbEntity
  8
OUTLINE
100
AcDbPolyline
 90
5
 70
0
 10
28.375
 20
-125.0
 10
81.875
 20
-125.0
 10
81.875
 20
-111.5
 10
28.375
 20
-111.5
 10
28.375
 20
-125.0
  0
MTEXT
  5
47
330
17
100
AcDbEntity
  8
LABELS
100
AcDbMText
 10
55.125
 20
-118.25
 30
0.0
 40
1.0
 71
5
  1
Horizontal Divider\P53.500" x 13.500"
  0
LWPOLYLINE
  5
48
330
17
100
AcDbEntity
  8
OUTLINE
100
AcDbPolyline
 90
5
 70
0
 10
83.875
 20
-125.0
 10
137.375
 20
-125.0
 10
137.375
 20
-111.5
 10
83.875
 20
-111.5
 10
83.875
 20
-125.0
  0
MTEXT
  5
49
330
17
100
AcDbEntity
  8
LABELS
100
AcDbMText
 10
110.625
 20
-118.25
 30
0.0
 40
1.0
 71
5
  1
Horizontal Divider\P53.500" x 13.500"
  0
LWPOLYLINE
  5
4A
330
17
100
AcDbEntity
  8
OUTLINE
100
AcDbPolyline
 90
5
 70
0
 10
139.375
 20
-125.0
 10
192.875
 20
-125.0
 10
192.875
 20
-111.5
 10
139.375
 20
-111.5
 10
139.375
 20
-125.0
  0
MTEXT
  5
4B
330
17
100
AcDbEntity
  8
LABELS
100
AcDbMText
 10
166.125
 20
-118.25
 30
0.0
 40
1.0
 71
5
  1
Horizontal Divider\P53.500" x 13.500"
  0
LWPOLYLINE
  5
4C
330
17
100
AcDbEntity
  8
OUTLINE
100
AcDbPolyline
 90
5
 70
0
 10
0.0
 20
-220.5
 10
27.25
 20
-220.5
 10
27.25
 20
-189.625
 10
0.0
 20
-189.625
 10
0.0
 20
-220.5
  0
MTEXT
  5
4D
330
17
100
AcDbEntity
  8
LABELS
100
AcDbMText
 10
13.625
 20
-205.0625
 30
0.0
 40
1.0
 71
5
  1
Door\P27.250" x 30.875"
  0
LWPOLYLINE
  5
4E
330
17
100
AcDbEntity
  8
OUTLINE
100
AcDbPolyline
 90
5
 70
0
 10
29.25
 20
-220.5
 10
56.5
 20
-220.5
 10
56.5
 20
-189.625
 10
29.25
 20
-189.625
 10
29.25
 20
-220.5
  0
MTEXT
  5
4F
330
17
100
AcDbEntity
  8
LABELS
100
AcDbMText
 10
42.875
 20
-205.0625
 30
0.0
 40
1.0
 71
5
  1
Door\P27.250" x 30.875"
  0
LWPOLYLINE
  5
50
330
17
100
AcDbEntity
  8
OUTLINE
100
AcDbPolyline
 90
5
 70
0
 10
58.5
 20
-220.5
 10
72.0
 20
-220.5
 10
72.0
 20
-127.0
 10
58.5
 20
-127.0
 10
58.5
 20
-220.5
  0
CIRCLE
  5
51
330
17
100
AcDbEntity
  8
HOLES
100
AcDbCircle
 10
59.95669291338583
 20
-219.04330708661416
 30
0.0
 40
0.09842519685039369
  0
CIRCLE
  5
52
330
17
100
AcDbEntity
  8
HOLES
100
AcDbCircle
 10
70.54330708661418
 20
-219.04330708661416
 30
0.0
 40
0.09842519685039369
  0
CIRCLE
  5
53
330
17
100
AcDbEntity
  8
HOLES
100
AcDbCircle
 10
59.95669291338583
 20
-217.78346456692913
 30
0.0
 40
0.09842519685039369
  0
CIRCLE
  5
54
330
17
100
AcDbEntity
  8
HOLES
100
AcDbCircle
 10
70.54330708661418
 20
-217.78346456692913
 30
0.0
 40
0.09842519685039369
  0
CIRCLE
  5
55
330
17
100
AcDbEntity
  8
HOLES
100
AcDbCircle
 10
59.95669291338583
 20
-216.5236220472441
 30
0.0
 40
0.09842519685039369
  0
CIRCLE
  5
56
330
17
100
AcDbEntity
  8
HOLES
100
AcDbCircle
 10
70.54330708661418
 20
-216.5236220472441
 30
0.0
 40
0.09842519685039369
  0
CIRCLE
  5
57
330
17
100
AcDbEntity
  8
HOLES
100
AcDbCircle
 10
59.95669291338583
 20
-215.26377952755905
 30
0.0
 40
0.09842519685039369
  0
CIRCLE
  5
58
330
17
100
AcDbEntity
  8
HOLES
100
AcDbCircle
 10
70.54330708661418
 20
-215.26377952755905
 30
0.0
 40
0.09842519685039369
  0
CIRCLE
  5
59
330
17
100
AcDbEntity
  8
HOLES
100
AcDbCircle
 10
59.95669291338583
 20
-214.00393700787401
 30
0.0
 40
0.09842519685039369
  0
CIRCLE
  5
5A
330
17
100
AcDbEntity
  8
HOLES
100
AcDbCircle
 10
70.54330708661418
 20
-214.00393700787401
 30
0.0
 40
0.09842519685039369
  0
CIRCLE
  5
5B
330
17
100
AcDbEntity
  8
HOLES
100
AcDbCircle
 10
59.95669291338583
 20
-212.74409448818898
 30
0.0
 40
0.09842519685039369
  0
CIRCLE
  5
5C
330
17
100
AcDbEntity
  8
HOLES
100
AcDbCircle
 10
70.54330708661418
 20
-212.74409448818898
 30
0.0
 40
0.09842519685039369
  0
CIRCLE
  5
5D
330
17
100
AcDbEntity
  8
HOLES
100
AcDbCircle
 10
59.95669291338583
 20
-211.48425196850394
 30
0.0
 40
0.09842519685039369
  0
CIRCLE
  5
5E
330
17
100
AcDbEntity
  8
HOLES
100
AcDbCircle
 10
70.54330708661418
 20
-211.48425196850394
 30
0.0
 40
0.09842519685039369
  0
CIRCLE
  5
5F
330
17
100
AcDbEntity
  8
HOLES
100
AcDbCircle
 10
59.95669291338583
 20
-210.2244094488189
 30
0.0
 40
0.09842519685039369
  0
CIRCLE
  5
60
330
17
100
AcDbEntity
  8
HOLES
100
AcDbCircle
 10
70.54330708661418
 20
-210.2244094488189
 30
0.0
 40
0.09842519685039369
  0
CIRCLE
  5
61
330
17
100
AcDbEntity
  8
HOLES
100
AcDbCircle
 10
59.95669291338583
 20
-208.96456692913387
 30
0.0
 40
0.09842519685039369
  0
CIRCLE
  5
62
330
17
100
AcDbEntity
  8
HOLES
100
AcDbCircle
 10
70.54330708661418
 20
-208.96456692913387
 30
0.0
 40
0.09842519685039369
  0
CIRCLE
  5
63
330
17
100
AcDbEntity
  8
HOLES
100
AcDbCircle
 10
59.95669291338583
 20
-207.70472440944883
 30
0.0
 40
0.09842519685039369
  0
CIRCLE
  5
64
330
17
100
AcDbEntity
  8
HOLES
100
AcDbCircle
 10
70.54330708661418
 20
-207.70472440944883
 30
0.0
 40
0.09842519685039369
  0
CIRCLE
  5
65
330
17
100
AcDbEntity
  8
HOLES
100
AcDbCircle
 10
59.95669291338583
 20
-206.4448818897638
 30
0.0
 40
0.09842519685039369
  0
CIRCLE
  5
66
330
17
100
AcDbEntity
  8
HOLES
100
AcDbCircle
 10
70.54330708661418
 20
-206.4448818897638
 30
0.0
 40
0.09842519685039369
  0
CIRCLE
  5
67
330
17
100
AcDbEntity
  8
HOLES
100
AcDbCircle
 10
59.95669291338583
 20
-205.18503937007875
 30
0.0
 40
0.09842519685039369
  0
CIRCLE
  5
68
330
17
100
AcDbEntity
  8
HOLES
100
AcDbCircle
 10
70.54330708661418
 20
-205.18503937007875
 30
0.0
 40
0.09842519685039369
  0
CIRCLE
  5
69
330
17
100
AcDbEntity
  8
HOLES
100
AcDbCircle
 10
59.95669291338583
 20
-203.92519685039372
 30
0.0
 40
0.09842519685039369
  0
CIRCLE
  5
6A
330
17
100
AcDbEntity
  8
HOLES
100
AcDbCircle
 10
70.54330708661418
 20
-203.92519685039372
 30
0.0
 40
0.09842519685039369
  0
CIRCLE
  5
6B
330
17
100
AcDbEntity
  8
HOLES
100
AcDbCircle
 10
59.95669291338583
 20
-202.66535433070868
 30
0.0
 40
0.09842519685039369
  0
CIRCLE
  5
6C
330
17
100
AcDbEntity
  8
HOLES
100
AcDbCircle
 10
70.54330708661418
 20
-202.66535433070868
 30
0.0
 40
0.09842519685039369
  0
CIRCLE
  5
6D
330
17
100
AcDbEntity
  8
HOLES
100
AcDbCircle
 10
59.95669291338583
 20
-201.40551181102364
 30
0.0
 40
0.09842519685039369
  0
CIRCLE
  5
6E
330
17
100
AcDbEntity
  8
HOLES
100
AcDbCircle
 10
70.54330708661418
 20
-201.40551181102364
 30
0.0
 40
0.09842519685039369
  0
CIRCLE
  5
6F
330
17
100
AcDbEntity
  8
HOLES
100
AcDbCircle
 10
59.95669291338583
 20
-200.1456692913386
 30
0.0
 40
0.09842519685039369
  0
CIRCLE
  5
70
330
17
100
AcDbEntity
  8
HOLES
100
AcDbCircle
 10
70.54330708661418
 20
-200.1456692913386
 30
0.0
 40
0.09842519685039369
  0
CIRCLE
  5
71
330
17
100
AcDbEntity
  8
HOLES
100
AcDbCircle
 10
59.95669291338583
 20
-198.88582677165357
 30
0.0
 40
0.09842519685039369
  0
CIRCLE
  5
72
330
17
100
AcDbEntity
  8
HOLES
100
AcDbCircle
 10
70.54330708661418
 20
-198.88582677165357
 30
0.0
 40
0.09842519685039369
  0
CIRCLE
  5
73
330
17
100
AcDbEntity
  8
HOLES
100
AcDbCircle
 10
59.95669291338583
 20
-197.62598425196853
 30
0.0
 40
0.09842519685039369
  0
CIRCLE
  5
74
330
17
100
AcDbEntity
  8
HOLES
100
AcDbCircle
 10
70.54330708661418
 20
-197.62598425196853
 30
0.0
 40
0.09842519685039369
  0
CIRCLE
  5
75
330
17
100
AcDbEntity
  8
HOLES
100
AcDbCircle
 10
59.95669291338583
 20
-196.3661417322835
 30
0.0
 40
0.09842519685039369
  0
CIRCLE
  5
76
330
17
100
AcDbEntity
  8
HOLES
100
AcDbCircle
 10
70.54330708661418
 20
-196.3661417322835
 30
0.0
 40
0.09842519685039369
  0
CIRCLE
  5
77
330
17
100
AcDbEntity
  8
HOLES
100
AcDbCircle
 10
59.95669291338583
 20
-195.10629921259846
 30
0.0
 40
0.09842519685039369
  0
CIRCLE
  5
78
330
17
100
AcDbEntity
  8
HOLES
100
AcDbCircle
 10
70.54330708661418
 20
-195.10629921259846
 30
0.0
 40
0.09842519685039369
  0
CIRCLE
  5
79
330
17
100
AcDbEntity
  8
HOLES
100
AcDbCircle
 10
59.95669291338583
 20
-193.84645669291342
 30
0.0
 40
0.09842519685039369
  0
CIRCLE
  5
7A
330
17
100
AcDbEntity
  8
HOLES
100
AcDbCircle
 10
70.54330708661418
 20
-193.84645669291342
 30
0.0
 40
0.09842519685039369
  0
CIRCLE
  5
7B
330
17
100
AcDbEntity
  8
HOLES
100
AcDbCircle
 10
59.95669291338583
 20
-192.58661417322838
 30
0.0
 40
0.09842519685039369
  0
CIRCLE
  5
7C
330
17
100
AcDbEntity
  8
HOLES
100
AcDbCircle
 10
70.54330708661418
 20
-192.58661417322838
 30
0.0
 40
0.09842519685039369
  0
CIRCLE
  5
7D
330
17
100
AcDbEntity
  8
HOLES
100
AcDbCircle
 10
59.95669291338583
 20
-191.32677165354335
 30
0.0
 40
0.09842519685039369
  0
CIRCLE
  5
7E
330
17
100
AcDbEntity
  8
HOLES
100
AcDbCircle
 10
70.54330708661418
 20
-191.32677165354335
 30
0.0
 40
0.09842519685039369
  0
CIRCLE
  5
7F
330
17
100
AcDbEntity
  8
HOLES
100
AcDbCircle
 10
59.95669291338583
 20
-190.0669291338583
 30
0.0
 40
0.09842519685039369
  0
CIRCLE
  5
80
330
17
100
AcDbEntity
  8
HOLES
100
AcDbCircle
 10
70.54330708661418
 20
-190.0669291338583
 30
0.0
 40
0.09842519685039369
  0
CIRCLE
  5
81
330
17
100
AcDbEntity
  8
HOLES
100
AcDbCircle
 10
59.95669291338583
 20
-188.80708661417327
 30
0.0
 40
0.09842519685039369
  0
CIRCLE
  5
82
330
17
100
AcDbEntity
  8
HOLES
100
AcDbCircle
 10
70.54330708661418
 20
-188.80708661417327
 30
0.0
 40
0.09842519685039369
  0
CIRCLE
  5
83
330
17
100
AcDbEntity
  8
HOLES
100
AcDbCircle
 10
59.95669291338583
 20
-187.54724409448824
 30
0.0
 40
0.09842519685039369
  0
CIRCLE
  5
84
330
17
100
AcDbEntity
  8
HOLES
100
AcDbCircle
 10
70.54330708661418
 20
-187.54724409448824
 30
0.0
 40
0.09842519685039369
  0
CIRCLE
  5
85
330
17
100
AcDbEntity
  8
HOLES
100
AcDbCircle
 10
59.95669291338583
 20
-186.2874015748032
 30
0.0
 40
0.09842519685039369
  0
CIRCLE
  5
86
330
17
100
AcDbEntity
  8
HOLES
100
AcDbCircle
 10
70.54330708661418
 20
-186.2874015748032
 30
0.0
 40
0.09842519685039369
  0
CIRCLE
  5
87
330
17
100
AcDbEntity
  8
HOLES
100
AcDbCircle
 10
59.95669291338583
 20
-185.02755905511816
 30
0.0
 40
0.09842519685039369
  0
CIRCLE
  5
88
330
17
100
AcDbEntity
  8
HOLES
100
AcDbCircle
 10
70.54330708661418
 20
-185.02755905511816
 30
0.0
 40
0.09842519685039369
  0
CIRCLE
  5
89
330
17
100
AcDbEntity
  8
HOLES
100
AcDbCircle
 10
59.95669291338583
 20
-183.76771653543312
 30
0.0
 40
0.09842519685039369
  0
CIRCLE
  5
8A
330
17
100
AcDbEntity
  8
HOLES
100
AcDbCircle
 10
70.54330708661418
 20
-183.76771653543312
 30
0.0
 40
0.09842519685039369
  0
CIRCLE
  5
8B
330
17
100
AcDbEntity
  8
HOLES
100
AcDbCircle
 10
59.95669291338583
 20
-182.5078740157481
 30
0.0
 40
0.09842519685039369
  0
CIRCLE
  5
8C
330
17
100
AcDbEntity
  8
HOLES
100
AcDbCircle
 10
70.54330708661418
 20
-182.5078740157481
 30
0.0
 40
0.09842519685039369
  0
CIRCLE
  5
8D
330
17
100
AcDbEntity
  8
HOLES
100
AcDbCircle
 10
59.95669291338583
 20
-181.24803149606305
 30
0.0
 40
0.09842519685039369
  0
CIRCLE
  5
8E
330
17
100
AcDbEntity
  8
HOLES
100
AcDbCircle
 10
70.54330708661418
 20
-181.24803149606305
 30
0.0
 40
0.09842519685039369
  0
CIRCLE
  5
8F
330
17
100
AcDbEntity
  8
HOLES
100
AcDbCircle
 10
59.95669291338583
 20
-179.988188976378
 30
0.0
 40
0.09842519685039369
  0
CIRCLE
  5
90
330
17
100
AcDbEntity
  8
HOLES
100
AcDbCircle
 10
70.54330708661418
 20
-179.988188976378
 30
0.0
 40
0.09842519685039369
  0
CIRCLE
  5
91
330
17
100
AcDbEntity
  8
HOLES
100
AcDbCircle
 10
59.95669291338583
 20
-178.72834645669298
 30
0.0
 40
0.09842519685039369
  0
CIRCLE
  5
92
330
17
100
AcDbEntity
  8
HOLES
100
AcDbCircle
 10
70.54330708661418
 20
-178.72834645669298
 30
0.0
 40
0.09842519685039369
  0
CIRCLE
  5
93
330
17
100
AcDbEntity
  8
HOLES
100
AcDbCircle
 10
59.95669291338583
 20
-177.46850393700794
 30
0.0
 40
0.09842519685039369
  0
CIRCLE
  5
94
330
17
100
AcDbEntity
  8
HOLES
100
AcDbCircle
 10
70.54330708661418
 20
-177.46850393700794
 30
0.0
 40
0.09842519685039369
  0
CIRCLE
  5
95
330
17
100
AcDbEntity
  8
HOLES
100
AcDbCircle
 10
59.95669291338583
 20
-176.2086614173229
 30
0.0
 40
0.09842519685039369
  0
CIRCLE
  5
96
330
17
100
AcDbEntity
  8
HOLES
100
AcDbCircle
 10
70.54330708661418
 20
-176.2086614173229
 30
0.0
 40
0.09842519685039369
  0
CIRCLE
  5
97
330
17
100
AcDbEntity
  8
HOLES
100
AcDbCircle
 10
59.95669291338583
 20
-174.94881889763786
 30
0.0
 40
0.09842519685039369
  0
CIRCLE
  5
98
330
17
100
AcDbEntity
  8
HOLES
100
AcDbCircle
 10
70.54330708661418
 20
-174.94881889763786
 30
0.0
 40
0.09842519685039369
  0
CIRCLE
  5
99
330
17
100
AcDbEntity
  8
HOLES
100
AcDbCircle
 10
59.95669291338583
 20
-173.68897637795283
 30
0.0
 40
0.09842519685039369
  0
CIRCLE
  5
9A
330
17
100
AcDbEntity
  8
HOLES
100
AcDbCircle
 10
70.54330708661418
 20
-173.68897637795283
 30
0.0
 40
0.09842519685039369
  0
CIRCLE
  5
9B
330
17
100
AcDbEntity
  8
HOLES
100
AcDbCircle
 10
59.95669291338583
 20
-172.4291338582678
 30
0.0
 40
0.09842519685039369
  0
CIRCLE
  5
9C
330
17
100
AcDbEntity
  8
HOLES
100
AcDbCircle
 10
70.54330708661418
 20
-172.4291338582678
 30
0.0
 40
0.09842519685039369
  0
CIRCLE
  5
9D
330
17
100
AcDbEntity
  8
HOLES
100
AcDbCircle
 10
59.95669291338583
 20
-171.16929133858275
 30
0.0
 40
0.09842519685039369
  0
CIRCLE
  5
9E
330
17
100
AcDbEntity
  8
HOLES
100
AcDbCircle
 10
70.54330708661418
 20
-171.16929133858275
 30
0.0
 40
0.09842519685039369
  0
CIRCLE
  5
9F
330
17
100
AcDbEntity
  8
HOLES
100
AcDbCircle
 10
59.95669291338583
 20
-169.90944881889772
 30
0.0
 40
0.09842519685039369
  0
CIRCLE
  5
A0
330
17
100
AcDbEntity
  8
HOLES
100
AcDbCircle
 10
70.54330708661418
 20
-169.90944881889772
 30
0.0
 40
0.09842519685039369
  0
CIRCLE
  5
A1
330
17
100
AcDbEntity
  8
HOLES
100
AcDbCircle
 10
59.95669291338583
 20
-168.64960629921268
 30
0.0
 40
0.09842519685039369
  0
CIRCLE
  5
A2
330
17
100
AcDbEntity
  8
HOLES
100
AcDbCircle
 10
70.54330708661418
 20
-168.64960629921268
 30
0.0
 40
0.09842519685039369
  0
CIRCLE
  5
A3
330
17
100
AcDbEntity
  8
HOLES
100
AcDbCircle
 10
59.95669291338583
 20
-167.38976377952764
 30
0.0
 40
0.09842519685039369
  0
CIRCLE
  5
A4
330
17
100
AcDbEntity
  8
HOLES
100
AcDbCircle
 10
70.54330708661418
 20
-167.38976377952764
 30
0.0
 40
0.09842519685039369
  0
CIRCLE
  5
A5
330
17
100
AcDbEntity
  8
HOLES
100
AcDbCircle
 10
59.95669291338583
 20
-166.1299212598426
 30
0.0
 40
0.09842519685039369
  0
CIRCLE
  5
A6
330
17
100
AcDbEntity
  8
HOLES
100
AcDbCircle
 10
70.54330708661418
 20
-166.1299212598426
 30
0.0
 40
0.09842519685039369
  0
CIRCLE
  5
A7
330
17
100
AcDbEntity
  8
HOLES
100
AcDbCircle
 10
59.95669291338583
 20
-164.87007874015757
 30
0.0
 40
0.09842519685039369
  0
CIRCLE
  5
A8
330
17
100
AcDbEntity
  8
HOLES
100
AcDbCircle
 10
70.54330708661418
 20
-164.87007874015757
 30
0.0
 40
0.09842519685039369
  0
CIRCLE
  5
A9
330
17
100
AcDbEntity
  8
HOLES
100
AcDbCircle
 10
59.95669291338583
 20
-163.61023622047253
 30
0.0
 40
0.09842519685039369
  0
CIRCLE
  5
AA
330
17
100
AcDbEntity
  8
HOLES
100
AcDbCircle
 10
70.54330708661418
 20
-163.61023622047253
 30
0.0
 40
0.09842519685039369
  0
CIRCLE
  5
AB
330
17
100
AcDbEntity
  8
HOLES
100
AcDbCircle
 10
59.95669291338583
 20
-162.3503937007875
 30
0.0
 40
0.09842519685039369
  0
CIRCLE
  5
AC
330
17
100
AcDbEntity
  8
HOLES
100
AcDbCircle
 10
70.54330708661418
 20
-162.3503937007875
 30
0.0
 40
0.09842519685039369
  0
CIRCLE
  5
AD
330
17
100
AcDbEntity
  8
HOLES
100
AcDbCircle
 10
59.95669291338583
 20
-161.09055118110246
 30
0.0
 40
0.09842519685039369
  0
CIRCLE
  5
AE
330
17
100
AcDbEntity
  8
HOLES
100
AcDbCircle
 10
70.54330708661418
 20
-161.09055118110246
 30
0.0
 40
0.09842519685039369
  0
CIRCLE
  5
AF
330
17
100
AcDbEntity
  8
HOLES
100
AcDbCircle
 10
59.95669291338583
 20
-159.83070866141742
 30
0.0
 40
0.09842519685039369
  0
CIRCLE
  5
B0
330
17
100
AcDbEntity
  8
HOLES
100
AcDbCircle
 10
70.54330708661418
 20
-159.83070866141742
 30
0.0
 40
0.09842519685039369
  0
CIRCLE
  5
B1
330
17
100
AcDbEntity
  8
HOLES
100
AcDbCircle
 10
59.95669291338583
 20
-158.57086614173238
 30
0.0
 40
0.09842519685039369
  0
CIRCLE
  5
B2
330
17
100
AcDbEntity
  8
HOLES
100
AcDbCircle
 10
70.54330708661418
 20
-158.57086614173238
 30
0.0
 40
0.09842519685039369
  0
CIRCLE
  5
B3
330
17
100
AcDbEntity
  8
HOLES
100
AcDbCircle
 10
59.95669291338583
 20
-157.31102362204734
 30
0.0
 40
0.09842519685039369
  0
CIRCLE
  5
B4
330
17
100
AcDbEntity
  8
HOLES
100
AcDbCircle
 10
70.54330708661418
 20
-157.31102362204734
 30
0.0
 40
0.09842519685039369
  0
CIRCLE
  5
B5
330
17
100
AcDbEntity
  8
HOLES
100
AcDbCircle
 10
59.95669291338583
 20
-156.0511811023623
 30
0.0
 40
0.09842519685039369
  0
CIRCLE
  5
B6
330
17
100
AcDbEntity
  8
HOLES
100
AcDbCircle
 10
70.54330708661418
 20
-156.0511811023623
 30
0.0
 40
0.09842519685039369
  0
CIRCLE
  5
B7
330
17
100
AcDbEntity
  8
HOLES
100
AcDbCircle
 10
59.95669291338583
 20
-154.79133858267727
 30
0.0
 40
0.09842519685039369
  0
CIRCLE
  5
B8
330
17
100
AcDbEntity
  8
HOLES
100
AcDbCircle
 10
70.54330708661418
 20
-154.79133858267727
 30
0.0
 40
0.09842519685039369
  0
CIRCLE
  5
B9
330
17
100
AcDbEntity
  8
HOLES
100
AcDbCircle
 10
59.95669291338583
 20
-153.53149606299223
 30
0.0
 40
0.09842519685039369
  0
CIRCLE
  5
BA
330
17
100
AcDbEntity
  8
HOLES
100
AcDbCircle
 10
70.54330708661418
 20
-153.53149606299223
 30
0.0
 40
0.09842519685039369
  0
CIRCLE
  5
BB
330
17
100
AcDbEntity
  8
HOLES
100
AcDbCircle
 10
59.95669291338583
 20
-152.2716535433072
 30
0.0
 40
0.09842519685039369
  0
CIRCLE
  5
BC
330
17
100
AcDbEntity
  8
HOLES
100
AcDbCircle
 10
70.54330708661418
 20
-152.2716535433072
 30
0.0
 40
0.09842519685039369
  0
CIRCLE
  5
BD
330
17
100
AcDbEntity
  8
HOLES
100
AcDbCircle
 10
59.95669291338583
 20
-151.01181102362216
 30
0.0
 40
0.09842519685039369
  0
CIRCLE
  5
BE
330
17
100
AcDbEntity
  8
HOLES
100
AcDbCircle
 10
70.54330708661418
 20
-151.01181102362216
 30
0.0
 40
0.09842519685039369
  0
CIRCLE
  5
BF
330
17
100
AcDbEntity
  8
HOLES
100
AcDbCircle
 10
59.95669291338583
 20
-149.75196850393712
 30
0.0
 40
0.09842519685039369
  0
CIRCLE
  5
C0
330
17
100
AcDbEntity
  8
HOLES
100
AcDbCircle
 10
70.54330708661418
 20
-149.75196850393712
 30
0.0
 40
0.09842519685039369
  0
CIRCLE
  5
C1
330
17
100
AcDbEntity
  8
HOLES
100
AcDbCircle
 10
59.95669291338583
 20
-148.49212598425208
 30
0.0
 40
0.09842519685039369
  0
CIRCLE
  5
C2
330
17
100
AcDbEntity
  8
HOLES
100
AcDbCircle
 10
70.54330708661418
 20
-148.49212598425208
 30
0.0
 40
0.09842519685039369
  0
CIRCLE
  5
C3
330
17
100
AcDbEntity
  8
HOLES
100
AcDbCircle
 10
59.95669291338583
 20
-147.23228346456705
 30
0.0
 40
0.09842519685039369
  0
CIRCLE
  5
C4
330
17
100
AcDbEntity
  8
HOLES
100
AcDbCircle
 10
70.54330708661418
 20
-147.23228346456705
 30
0.0
 40
0.09842519685039369
  0
CIRCLE
  5
C5
330
17
100
AcDbEntity
  8
HOLES
100
AcDbCircle
 10
59.95669291338583
 20
-145.972440944882
 30
0.0
 40
0.09842519685039369
  0
CIRCLE
  5
C6
330
17
100
AcDbEntity
  8
HOLES
100
AcDbCircle
 10
70.54330708661418
 20
-145.972440944882
 30
0.0
 40
0.09842519685039369
  0
CIRCLE
  5
C7
330
17
100
AcDbEntity
  8
HOLES
100
AcDbCircle
 10
59.95669291338583
 20
-144.71259842519697
 30
0.0
 40
0.09842519685039369
  0
CIRCLE
  5
C8
330
17
100
AcDbEntity
  8
HOLES
100
AcDbCircle
 10
70.54330708661418
 20
-144.71259842519697
 30
0.0
 40
0.09842519685039369
  0
CIRCLE
  5
C9
330
17
100
AcDbEntity
  8
HOLES
100
AcDbCircle
 10
59.95669291338583
 20
-143.45275590551194
 30
0.0
 40
0.09842519685039369
  0
CIRCLE
  5
CA
330
17
100
AcDbEntity
  8
HOLES
100
AcDbCircle
 10
70.54330708661418
 20
-143.45275590551194
 30
0.0
 40
0.09842519685039369
  0
CIRCLE
  5
CB
330
17
100
AcDbEntity
  8
HOLES
100
AcDbCircle
 10
59.95669291338583
 20
-142.1929133858269
 30
0.0
 40
0.09842519685039369
  0
CIRCLE
  5
CC
330
17
100
AcDbEntity
  8
HOLES
100
AcDbCircle
 10
70.54330708661418
 20
-142.1929133858269
 30
0.0
 40
0.09842519685039369
  0
CIRCLE
  5
CD
330
17
100
AcDbEntity
  8
HOLES
100
AcDbCircle
 10
59.95669291338583
 20
-140.93307086614186
 30
0.0
 40
0.09842519685039369
  0
CIRCLE
  5
CE
330
17
100
AcDbEntity
  8
HOLES
100
AcDbCircle
 10
70.54330708661418
 20
-140.93307086614186
 30
0.0
 40
0.09842519685039369
  0
CIRCLE
  5
CF
330
17
100
AcDbEntity
  8
HOLES
100
AcDbCircle
 10
59.95669291338583
 20
-139.67322834645682
 30
0.0
 40
0.09842519685039369
  0
CIRCLE
  5
D0
330
17
100
AcDbEntity
  8
HOLES
100
AcDbCircle
 10
70.54330708661418
 20
-139.67322834645682
 30
0.0
 40
0.09842519685039369
  0
CIRCLE
  5
D1
330
17
100
AcDbEntity
  8
HOLES
100
AcDbCircle
 10
59.95669291338583
 20
-138.4133858267718
 30
0.0
 40
0.09842519685039369
  0
CIRCLE
  5
D2
330
17
100
AcDbEntity
  8
HOLES
100
AcDbCircle
 10
70.54330708661418
 20
-138.4133858267718
 30
0.0
 40
0.09842519685039369
  0
CIRCLE
  5
D3
330
17
100
AcDbEntity
  8
HOLES
100
AcDbCircle
 10
59.95669291338583
 20
-137.15354330708675
 30
0.0
 40
0.09842519685039369
  0
CIRCLE
  5
D4
330
17
100
AcDbEntity
  8
HOLES
100
AcDbCircle
 10
70.54330708661418
 20
-137.15354330708675
 30
0.0
 40
0.09842519685039369
  0
CIRCLE
  5
D5
330
17
100
AcDbEntity
  8
HOLES
100
AcDbCircle
 10
59.95669291338583
 20
-135.8937007874017
 30
0.0
 40
0.09842519685039369
  0
CIRCLE
  5
D6
330
17
100
AcDbEntity
  8
HOLES
100
AcDbCircle
 10
70.54330708661418
 20
-135.8937007874017
 30
0.0
 40
0.09842519685039369
  0
CIRCLE
  5
D7
330
17
100
AcDbEntity
  8
HOLES
100
AcDbCircle
 10
59.95669291338583
 20
-134.63385826771668
 30
0.0
 40
0.09842519685039369
  0
CIRCLE
  5
D8
330
17
100
AcDbEntity
  8
HOLES
100
AcDbCircle
 10
70.54330708661418
 20
-134.63385826771668
 30
0.0
 40
0.09842519685039369
  0
CIRCLE
  5
D9
330
17
100
AcDbEntity
  8
HOLES
100
AcDbCircle
 10
59.95669291338583
 20
-133.37401574803164
 30
0.0
 40
0.09842519685039369
  0
CIRCLE
  5
DA
330
17
100
AcDbEntity
  8
HOLES
100
AcDbCircle
 10
70.54330708661418
 20
-133.37401574803164
 30
0.0
 40
0.09842519685039369
  0
CIRCLE
  5
DB
330
17
100
AcDbEntity
  8
HOLES
100
AcDbCircle
 10
59.95669291338583
 20
-132.1141732283466
 30
0.0
 40
0.09842519685039369
  0
CIRCLE
  5
DC
330
17
100
AcDbEntity
  8
HOLES
100
AcDbCircle
 10
70.54330708661418
 20
-132.1141732283466
 30
0.0
 40
0.09842519685039369
  0
CIRCLE
  5
DD
330
17
100
AcDbEntity
  8
HOLES
100
AcDbCircle
 10
59.95669291338583
 20
-130.85433070866156
 30
0.0
 40
0.09842519685039369
  0
CIRCLE
  5
DE
330
17
100
AcDbEntity
  8
HOLES
100
AcDbCircle
 10
70.54330708661418
 20
-130.85433070866156
 30
0.0
 40
0.09842519685039369
  0
CIRCLE
  5
DF
330
17
100
AcDbEntity
  8
HOLES
100
AcDbCircle
 10
59.95669291338583
 20
-129.59448818897653
 30
0.0
 40
0.09842519685039369
  0
CIRCLE
  5
E0
330
17
100
AcDbEntity
  8
HOLES
100
AcDbCircle
 10
70.54330708661418
 20
-129.59448818897653
 30
0.0
 40
0.09842519685039369
  0
MTEXT
  5
E1
330
17
100
AcDbEntity
  8
LABELS
100
AcDbMText
 10
65.25
 20
-173.75
 30
0.0
 40
1.0
 71
5
  1
Left Side\P13.500" x 93.500"
  0
LWPOLYLINE
  5
E2
330
17
100
AcDbEntity
  8
OUTLINE
100
AcDbPolyline
 90
5
 70
0
 10
74.0
 20
-220.5
 10
87.5
 20
-220.5
 10
87.5
 20
-127.0
 10
74.0
 20
-127.0
 10
74.0
 20
-220.5
  0
CIRCLE
  5
E3
330
17
100
AcDbEntity
  8
HOLES
100
AcDbCircle
 10
75.45669291338582
 20
-219.04330708661416
 30
0.0
 40
0.09842519685039369
  0
CIRCLE
  5
E4
330
17
100
AcDbEntity
  8
HOLES
100
AcDbCircle
 10
86.04330708661418
 20
-219.04330708661416
 30
0.0
 40
0.09842519685039369
  0
CIRCLE
  5
E5
330
17
100
AcDbEntity
  8
HOLES
100
AcDbCircle
 10
75.45669291338582
 20
-217.78346456692913
 30
0.0
 40
0.09842519685039369
  0
CIRCLE
  5
E6
330
17
100
AcDbEntity
  8
HOLES
100
AcDbCircle
 10
86.04330708661418
 20
-217.78346456692913
 30
0.0
 40
0.09842519685039369
  0
CIRCLE
  5
E7
330
17
100
AcDbEntity
  8
HOLES
100
AcDbCircle
 10
75.45669291338582
 20
-216.5236220472441
 30
0.0
 40
0.09842519685039369
  0
CIRCLE
  5
E8
330
17
100
AcDbEntity
  8
HOLES
100
AcDbCircle
 10
86.04330708661418
 20
-216.5236220472441
 30
0.0
 40
0.09842519685039369
  0
CIRCLE
  5
E9
330
17
100
AcDbEntity
  8
HOLES
100
AcDbCircle
 10
75.45669291338582
 20
-215.26377952755905
 30
0.0
 40
0.09842519685039369
  0
CIRCLE
  5
EA
330
17
100
AcDbEntity
  8
HOLES
100
AcDbCircle
 10
86.04330708661418
 20
-215.26377952755905
 30
0.0
 40
0.09842519685039369
  0
CIRCLE
  5
EB
330
17
100
AcDbEntity
  8
HOLES
100
AcDbCircle
 10
75.45669291338582
 20
-214.00393700787401
 30
0.0
 40
0.09842519685039369
  0
CIRCLE
  5
EC
330
17
100
AcDbEntity
  8
HOLES
100
AcDbCircle
 10
86.04330708661418
 20
-214.00393700787401
 30
0.0
 40
0.09842519685039369
  0
CIRCLE
  5
ED
330
17
100
AcDbEntity
  8
HOLES
100
AcDbCircle
 10
75.45669291338582
 20
-212.74409448818898
 30
0.0
 40
0.09842519685039369
  0
CIRCLE
  5
EE
330
17
100
AcDbEntity
  8
HOLES
100
AcDbCircle
 10
86.04330708661418
 20
-212.74409448818898
 30
0.0
 40
0.09842519685039369
  0
CIRCLE
  5
EF
330
17
100
AcDbEntity
  8
HOLES
100
AcDbCircle
 10
75.45669291338582
 20
-211.48425196850394
 30
0.0
 40
0.09842519685039369
  0
CIRCLE
  5
F0
330
17
100
AcDbEntity
  8
HOLES
100
AcDbCircle
 10
86.04330708661418
 20
-211.48425196850394
 30
0.0
 40
0.09842519685039369
  0
CIRCLE
  5
F1
330
17
100
AcDbEntity
  8
HOLES
100
AcDbCircle
 10
75.45669291338582
 20
-210.2244094488189
 30
0.0
 40
0.09842519685039369
  0
CIRCLE
  5
F2
330
17
100
AcDbEntity
  8
HOLES
100
AcDbCircle
 10
86.04330708661418
 20
-210.2244094488189
 30
0.0
 40
0.09842519685039369
  0
CIRCLE
  5
F3
330
17
100
AcDbEntity
  8
HOLES
100
AcDbCircle
 10
75.45669291338582
 20
-208.96456692913387
 30
0.0
 40
0.09842519685039369
  0
CIRCLE
  5
F4
330
17
100
AcDbEntity
  8
HOLES
100
AcDbCircle
 10
86.04330708661418
 20
-208.96456692913387
 30
0.0
 40
0.09842519685039369
  0
CIRCLE
  5
F5
330
17
100
AcDbEntity
  8
HOLES
100
AcDbCircle
 10
75.45669291338582
 20
-207.70472440944883
 30
0.0
 40
0.09842519685039369
  0
CIRCLE
  5
F6
330
17
100
AcDbEntity
  8
HOLES
100
AcDbCircle
 10
86.04330708661418
 20
-207.70472440944883
 30
0.0
 40
0.09842519685039369
  0
CIRCLE
  5
F7
330
17
100
AcDbEntity
  8
HOLES
100
AcDbCircle
 10
75.45669291338582
 20
-206.4448818897638
 30
0.0
 40
0.09842519685039369
  0
CIRCLE
  5
F8
330
17
100
AcDbEntity
  8
HOLES
100
AcDbCircle
 10
86.04330708661418
 20
-206.4448818897638
 30
0.0
 40
0.09842519685039369
  0
CIRCLE
  5
F9
330
17
100
AcDbEntity
  8
HOLES
100
AcDbCircle
 10
75.45669291338582
 20
-205.18503937007875
 30
0.0
 40
0.09842519685039369
  0
CIRCLE
  5
FA
330
17
100
AcDbEntity
  8
HOLES
100
AcDbCircle
 10
86.04330708661418
 20
-205.18503937007875
 30
0.0
 40
0.09842519685039369
  0
CIRCLE
  5
FB
330
17
100
AcDbEntity
  8
HOLES
100
AcDbCircle
 10
75.45669291338582
 20
-203.92519685039372
 30
0.0
 40
0.09842519685039369
  0
CIRCLE
  5
FC
330
17
100
AcDbEntity
  8
HOLES
100
AcDbCircle
 10
86.04330708661418
 20
-203.92519685039372
 30
0.0
 40
0.09842519685039369
  0
CIRCLE
  5
FD
330
17
100
AcDbEntity
  8
HOLES
100
AcDbCircle
 10
75.45669291338582
 20
-202.66535433070868
 30
0.0
 40
0.09842519685039369
  0
CIRCLE
  5
FE
330
17
100
AcDbEntity
  8
HOLES
100
AcDbCircle
 10
86.04330708661418
 20
-202.66535433070868
 30
0.0
 40
0.09842519685039369
  0
CIRCLE
  5
FF
330
17
100
AcDbEntity
  8
HOLES
100
AcDbCircle
 10
75.45669291338582
 20
-201.40551181102364
 30
0.0
 40
0.09842519685039369
  0
CIRCLE
  5
100
330
17
100
AcDbEntity
  8
HOLES
100
AcDbCircle
 10
86.04330708661418
 20
-201.40551181102364
 30
0.0
 40
0.09842519685039369
  0
CIRCLE
  5
101
330
17
100
AcDbEntity
  8
HOLES
100
AcDbCircle
 10
75.45669291338582
 20
-200.1456692913386
 30
0.0
 40
0.09842519685039369
  0
CIRCLE
  5
102
330
17
100
AcDbEntity
  8
HOLES
100
AcDbCircle
 10
86.04330708661418
 20
-200.1456692913386
 30
0.0
 40
0.09842519685039369
  0
CIRCLE
  5
103
330
17
100
AcDbEntity
  8
HOLES
100
AcDbCircle
 10
75.45669291338582
 20
-198.88582677165357
 30
0.0
 40
0.09842519685039369
  0
CIRCLE
  5
104
330
17
100
AcDbEntity
  8
HOLES
100
AcDbCircle
 10
86.04330708661418
 20
-198.88582677165357
 30
0.0
 40
0.09842519685039369
  0
CIRCLE
  5
105
330
17
100
AcDbEntity
  8
HOLES
100
AcDbCircle
 10
75.45669291338582
 20
-197.62598425196853
 30
0.0
 40
0.09842519685039369
  0
CIRCLE
  5
106
330
17
100
AcDbEntity
  8
HOLES
100
AcDbCircle
 10
86.04330708661418
 20
-197.62598425196853
 30
0.0
 40
0.09842519685039369
  0
CIRCLE
  5
107
330
17
100
AcDbEntity
  8
HOLES
100
AcDbCircle
 10
75.45669291338582
 20
-196.3661417322835
 30
0.0
 40
0.09842519685039369
  0
CIRCLE
  5
108
330
17
100
AcDbEntity
  8
HOLES
100
AcDbCircle
 10
86.04330708661418
 20
-196.3661417322835
 30
0.0
 40
0.09842519685039369
  0
CIRCLE
  5
109
330
17
100
AcDbEntity
  8
HOLES
100
AcDbCircle
 10
75.45669291338582
 20
-195.10629921259846
 30
0.0
 40
0.09842519685039369
  0
CIRCLE
  5
10A
330
17
100
AcDbEntity
  8
HOLES
100
AcDbCircle
 10
86.04330708661418
 20
-195.10629921259846
 30
0.0
 40
0.09842519685039369
  0
CIRCLE
  5
10B
330
17
100
AcDbEntity
  8
HOLES
100
AcDbCircle
 10
75.45669291338582
 20
-193.84645669291342
 30
0.0
 40
0.09842519685039369
  0
CIRCLE
  5
10C
330
17
100
AcDbEntity
  8
HOLES
100
AcDbCircle
 10
86.04330708661418
 20
-193.84645669291342
 30
0.0
 40
0.09842519685039369
  0
CIRCLE
  5
10D
330
17
100
AcDbEntity
  8
HOLES
100
AcDbCircle
 10
75.45669291338582
 20
-192.58661417322838
 30
0.0
 40
0.09842519685039369
  0
CIRCLE
  5
10E
330
17
100
AcDbEntity
  8
HOLES
100
AcDbCircle
 10
86.04330708661418
 20
-192.58661417322838
 30
0.0
 40
0.09842519685039369
  0
CIRCLE
  5
10F
330
17
100
AcDbEntity
  8
HOLES
100
AcDbCircle
 10
75.45669291338582
 20
-191.32677165354335
 30
0.0
 40
0.09842519685039369
  0
CIRCLE
  5
110
330
17
100
AcDbEntity
  8
HOLES
100
AcDbCircle
 10
86.04330708661418
 20
-191.32677165354335
 30
0.0
 40
0.09842519685039369
  0
CIRCLE
  5
111
330
17
100
AcDbEntity
  8
HOLES
100
AcDbCircle
 10
75.45669291338582
 20
-190.0669291338583
 30
0.0
 40
0.09842519685039369
  0
CIRCLE
  5
112
330
17
100
AcDbEntity
  8
HOLES
100
AcDbCircle
 10
86.04330708661418
 20
-190.0669291338583
 30
0.0
 40
0.09842519685039369
  0
CIRCLE
  5
113
330
17
100
AcDbEntity
  8
HOLES
100
AcDbCircle
 10
75.45669291338582
 20
-188.80708661417327
 30
0.0
 40
0.09842519685039369
  0
CIRCLE
  5
114
330
17
100
AcDbEntity
  8
HOLES
100
AcDbCircle
 10
86.04330708661418
 20
-188.80708661417327
 30
0.0
 40
0.09842519685039369
  0
CIRCLE
  5
115
330
17
100
AcDbEntity
  8
HOLES
100
AcDbCircle
 10
75.45669291338582
 20
-187.54724409448824
 30
0.0
 40
0.09842519685039369
  0
CIRCLE
  5
116
330
17
100
AcDbEntity
  8
HOLES
100
AcDbCircle
 10
86.04330708661418
 20
-187.54724409448824
 30
0.0
 40
0.09842519685039369
  0
CIRCLE
  5
117
330
17
100
AcDbEntity
  8
HOLES
100
AcDbCircle
 10
75.45669291338582
 20
-186.2874015748032
 30
0.0
 40
0.09842519685039369
  0
CIRCLE
  5
118
330
17
100
AcDbEntity
  8
HOLES
100
AcDbCircle
 10
86.04330708661418
 20
-186.2874015748032
 30
0.0
 40
0.09842519685039369
  0
CIRCLE
  5
119
330
17
100
AcDbEntity
  8
HOLES
100
AcDbCircle
 10
75.45669291338582
 20
-185.02755905511816
 30
0.0
 40
0.09842519685039369
  0
CIRCLE
  5
11A
330
17
100
AcDbEntity
  8
HOLES
100
AcDbCircle
 10
86.04330708661418
 20
-185.02755905511816
 30
0.0
 40
0.09842519685039369
  0
CIRCLE
  5
11B
330
17
100
AcDbEntity
  8
HOLES
100
AcDbCircle
 10
75.45669291338582
 20
-183.76771653543312
 30
0.0
 40
0.09842519685039369
  0
CIRCLE
  5
11C
330
17
100
AcDbEntity
  8
HOLES
100
AcDbCircle
 10
86.04330708661418
 20
-183.76771653543312
 30
0.0
 40
0.09842519685039369
  0
CIRCLE
  5
11D
330
17
100
AcDbEntity
  8
HOLES
100
AcDbCircle
 10
75.45669291338582
 20
-182.5078740157481
 30
0.0
 40
0.09842519685039369
  0
CIRCLE
  5
11E
330
17
100
AcDbEntity
  8
HOLES
100
AcDbCircle
 10
86.04330708661418
 20
-182.5078740157481
 30
0.0
 40
0.09842519685039369
  0
CIRCLE
  5
11F
330
17
100
AcDbEntity
  8
HOLES
100
AcDbCircle
 10
75.45669291338582
 20
-181.24803149606305
 30
0.0
 40
0.09842519685039369
  0
CIRCLE
  5
120
330
17
100
AcDbEntity
  8
HOLES
100
AcDbCircle
 10
86.04330708661418
 20
-181.24803149606305
 30
0.0
 40
0.09842519685039369
  0
CIRCLE
  5
121
330
17
100
AcDbEntity
  8
HOLES
100
AcDbCircle
 10
75.45669291338582
 20
-179.988188976378
 30
0.0
 40
0.09842519685039369
  0
CIRCLE
  5
122
330
17
100
AcDbEntity
  8
HOLES
100
AcDbCircle
 10
86.04330708661418
 20
-179.988188976378
 30
0.0
 40
0.09842519685039369
  0
CIRCLE
  5
123
330
17
100
AcDbEntity
  8
HOLES
100
AcDbCircle
 10
75.45669291338582
 20
-178.72834645669298
 30
0.0
 40
0.09842519685039369
  0
CIRCLE
  5
124
330
17
100
AcDbEntity
  8
HOLES
100
AcDbCircle
 10
86.04330708661418
 20
-178.72834645669298
 30
0.0
 40
0.09842519685039369
  0
CIRCLE
  5
125
330
17
100
AcDbEntity
  8
HOLES
100
AcDbCircle
 10
75.45669291338582
 20
-177.46850393700794
 30
0.0
 40
0.09842519685039369
  0
CIRCLE
  5
126
330
17
100
AcDbEntity
  8
HOLES
100
AcDbCircle
 10
86.04330708661418
 20
-177.46850393700794
 30
0.0
 40
0.09842519685039369
  0
CIRCLE
  5
127
330
17
100
AcDbEntity
  8
HOLES
100
AcDbCircle
 10
75.45669291338582
 20
-176.2086614173229
 30
0.0
 40
0.09842519685039369
  0
CIRCLE
  5
128
330
17
100
AcDbEntity
  8
HOLES
100
AcDbCircle
 10
86.04330708661418
 20
-176.2086614173229
 30
0.0
 40
0.09842519685039369
  0
CIRCLE
  5
129
330
17
100
AcDbEntity
  8
HOLES
100
AcDbCircle
 10
75.45669291338582
 20
-174.94881889763786
 30
0.0
 40
0.09842519685039369
  0
CIRCLE
  5
12A
330
17
100
AcDbEntity
  8
HOLES
100
AcDbCircle
 10
86.04330708661418
 20
-174.94881889763786
 30
0.0
 40
0.09842519685039369
  0
CIRCLE
  5
12B
330
17
100
AcDbEntity
  8
HOLES
100
AcDbCircle
 10
75.45669291338582
 20
-173.68897637795283
 30
0.0
 40
0.09842519685039369
  0
CIRCLE
  5
12C
330
17
100
AcDbEntity
  8
HOLES
100
AcDbCircle
 10
86.04330708661418
 20
-173.68897637795283
 30
0.0
 40
0.09842519685039369
  0
CIRCLE
  5
12D
330
17
100
AcDbEntity
  8
HOLES
100
AcDbCircle
 10
75.45669291338582
 20
-172.4291338582678
 30
0.0
 40
0.09842519685039369
  0
CIRCLE
  5
12E
330
17
100
AcDbEntity
  8
HOLES
100
AcDbCircle
 10
86.04330708661418
 20
-172.4291338582678
 30
0.0
 40
0.09842519685039369
  0
CIRCLE
  5
12F
330
17
100
AcDbEntity
  8
HOLES
100
AcDbCircle
 10
75.45669291338582
 20
-171.16929133858275
 30
0.0
 40
0.09842519685039369
  0
CIRCLE
  5
130
330
17
100
AcDbEntity
  8
HOLES
100
AcDbCircle
 10
86.04330708661418
 20
-171.16929133858275
 30
0.0
 40
0.09842519685039369
  0
CIRCLE
  5
131
330
17
100
AcDbEntity
  8
HOLES
100
AcDbCircle
 10
75.45669291338582
 20
-169.90944881889772
 30
0.0
 40
0.09842519685039369
  0
CIRCLE
  5
132
330
17
100
AcDbEntity
  8
HOLES
100
AcDbCircle
 10
86.04330708661418
 20
-169.90944881889772
 30
0.0
 40
0.09842519685039369
  0
CIRCLE
  5
133
330
17
100
AcDbEntity
  8
HOLES
100
AcDbCircle
 10
75.45669291338582
 20
-168.64960629921268
 30
0.0
 40
0.09842519685039369
  0
CIRCLE
  5
134
330
17
100
AcDbEntity
  8
HOLES
100
AcDbCircle
 10
86.04330708661418
 20
-168.64960629921268
 30
0.0
 40
0.09842519685039369
  0
CIRCLE
  5
135
330
17
100
AcDbEntity
  8
HOLES
100
AcDbCircle
 10
75.45669291338582
 20
-167.38976377952764
 30
0.0
 40
0.09842519685039369
  0
CIRCLE
  5
136
330
17
100
AcDbEntity
  8
HOLES
100
AcDbCircle
 10
86.04330708661418
 20
-167.38976377952764
 30
0.0
 40
0.09842519685039369
  0
CIRCLE
  5
137
330
17
100
AcDbEntity
  8
HOLES
100
AcDbCircle
 10
75.45669291338582
 20
-166.1299212598426
 30
0.0
 40
0.09842519685039369
  0
CIRCLE
  5
138
330
17
100
AcDbEntity
  8
HOLES
100
AcDbCircle
 10
86.04330708661418
 20
-166.1299212598426
 30
0.0
 40
0.09842519685039369
  0
CIRCLE
  5
139
330
17
100
AcDbEntity
  8
HOLES
100
AcDbCircle
 10
75.45669291338582
 20
-164.87007874015757
 30
0.0
 40
0.09842519685039369
  0
CIRCLE
  5
13A
330
17
100
AcDbEntity
  8
HOLES
100
AcDbCircle
 10
86.04330708661418
 20
-164.87007874015757
 30
0.0
 40
0.09842519685039369
  0
CIRCLE
  5
13B
330
17
100
AcDbEntity
  8
HOLES
100
AcDbCircle
 10
75.45669291338582
 20
-163.61023622047253
 30
0.0
 40
0.09842519685039369
  0
CIRCLE
  5
13C
330
17
100
AcDbEntity
  8
HOLES
100
AcDbCircle
 10
86.04330708661418
 20
-163.61023622047253
 30
0.0
 40
0.09842519685039369
  0
CIRCLE
  5
13D
330
17
100
AcDbEntity
  8
HOLES
100
AcDbCircle
 10
75.45669291338582
 20
-162.3503937007875
 30
0.0
 40
0.09842519685039369
  0
CIRCLE
  5
13E
330
17
100
AcDbEntity
  8
HOLES
100
AcDbCircle
 10
86.04330708661418
 20
-162.3503937007875
 30
0.0
 40
0.09842519685039369
  0
CIRCLE
  5
13F
330
17
100
AcDbEntity
  8
HOLES
100
AcDbCircle
 10
75.45669291338582
 20
-161.09055118110246
 30
0.0
 40
0.09842519685039369
  0
CIRCLE
  5
140
330
17
100
AcDbEntity
  8
HOLES
100
AcDbCircle
 10
86.04330708661418
 20
-161.09055118110246
 30
0.0
 40
0.09842519685039369
  0
CIRCLE
  5
141
330
17
100
AcDbEntity
  8
HOLES
100
AcDbCircle
 10
75.45669291338582
 20
-159.83070866141742
 30
0.0
 40
0.09842519685039369
  0
CIRCLE
  5
142
330
17
100
AcDbEntity
  8
HOLES
100
AcDbCircle
 10
86.04330708661418
 20
-159.83070866141742
 30
0.0
 40
0.09842519685039369
  0
CIRCLE
  5
143
330
17
100
AcDbEntity
  8
HOLES
100
AcDbCircle
 10
75.45669291338582
 20
-158.57086614173238
 30
0.0
 40
0.09842519685039369
  0
CIRCLE
  5
144
330
17
100
AcDbEntity
  8
HOLES
100
AcDbCircle
 10
86.04330708661418
 20
-158.57086614173238
 30
0.0
 40
0.09842519685039369
  0
CIRCLE
  5
145
330
17
100
AcDbEntity
  8
HOLES
100
AcDbCircle
 10
75.45669291338582
 20
-157.31102362204734
 30
0.0
 40
0.09842519685039369
  0
CIRCLE
  5
146
330
17
100
AcDbEntity
  8
HOLES
100
AcDbCircle
 10
86.04330708661418
 20
-157.31102362204734
 30
0.0
 40
0.09842519685039369
  0
CIRCLE
  5
147
330
17
100
AcDbEntity
  8
HOLES
100
AcDbCircle
 10
75.45669291338582
 20
-156.0511811023623
 30
0.0
 40
0.09842519685039369
  0
CIRCLE
  5
148
330
17
100
AcDbEntity
  8
HOLES
100
AcDbCircle
 10
86.04330708661418
 20
-156.0511811023623
 30
0.0
 40
0.09842519685039369
  0
CIRCLE
  5
149
330
17
100
AcDbEntity
  8
HOLES
100
AcDbCircle
 10
75.45669291338582
 20
-154.79133858267727
 30
0.0
 40
0.09842519685039369
  0
CIRCLE
  5
14A
330
17
100
AcDbEntity
  8
HOLES
100
AcDbCircle
 10
86.04330708661418
 20
-154.79133858267727
 30
0.0
 40
0.09842519685039369
  0
CIRCLE
  5
14B
330
17
100
AcDbEntity
  8
HOLES
100
AcDbCircle
 10
75.45669291338582
 20
-153.53149606299223
 30
0.0
 40
0.09842519685039369
  0
CIRCLE
  5
14C
330
17
100
AcDbEntity
  8
HOLES
100
AcDbCircle
 10
86.04330708661418
 20
-153.53149606299223
 30
0.0
 40
0.09842519685039369
  0
CIRCLE
  5
14D
330
17
100
AcDbEntity
  8
HOLES
100
AcDbCircle
 10
75.45669291338582
 20
-152.2716535433072
 30
0.0
 40
0.09842519685039369
  0
CIRCLE
  5
14E
330
17
100
AcDbEntity
  8
HOLES
100
AcDbCircle
 10
86.04330708661418
 20
-152.2716535433072
 30
0.0
 40
0.09842519685039369
  0
CIRCLE
  5
14F
330
17
100
AcDbEntity
  8
HOLES
100
AcDbCircle
 10
75.45669291338582
 20
-151.01181102362216
 30
0.0
 40
0.09842519685039369
  0
CIRCLE
  5
150
330
17
100
AcDbEntity
  8
HOLES
100
AcDbCircle
 10
86.04330708661418
 20
-151.01181102362216
 30
0.0
 40
0.09842519685039369
  0
CIRCLE
  5
151
330
17
100
AcDbEntity
  8
HOLES
100
AcDbCircle
 10
75.45669291338582
 20
-149.75196850393712
 30
0.0
 40
0.09842519685039369
  0
CIRCLE
  5
152
330
17
100
AcDbEntity
  8
HOLES
100
AcDbCircle
 10
86.04330708661418
 20
-149.75196850393712
 30
0.0
 40
0.09842519685039369
  0
CIRCLE
  5
153
330
17
100
AcDbEntity
  8
HOLES
100
AcDbCircle
 10
75.45669291338582
 20
-148.49212598425208
 30
0.0
 40
0.09842519685039369
  0
CIRCLE
  5
154
330
17
100
AcDbEntity
  8
HOLES
100
AcDbCircle
 10
86.04330708661418
 20
-148.49212598425208
 30
0.0
 40
0.09842519685039369
  0
CIRCLE
  5
155
330
17
100
AcDbEntity
  8
HOLES
100
AcDbCircle
 10
75.45669291338582
 20
-147.23228346456705
 30
0.0
 40
0.09842519685039369
  0
CIRCLE
  5
156
330
17
100
AcDbEntity
  8
HOLES
100
AcDbCircle
 10
86.04330708661418
 20
-147.23228346456705
 30
0.0
 40
0.09842519685039369
  0
CIRCLE
  5
157
330
17
100
AcDbEntity
  8
HOLES
100
AcDbCircle
 10
75.45669291338582
 20
-145.972440944882
 30
0.0
 40
0.09842519685039369
  0
CIRCLE
  5
158
330
17
100
AcDbEntity
  8
HOLES
100
AcDbCircle
 10
86.04330708661418
 20
-145.972440944882
 30
0.0
 40
0.09842519685039369
  0
CIRCLE
  5
159
330
17
100
AcDbEntity
  8
HOLES
100
AcDbCircle
 10
75.45669291338582
 20
-144.71259842519697
 30
0.0
 40
0.09842519685039369
  0
CIRCLE
  5
15A
330
17
100
AcDbEntity
  8
HOLES
100
AcDbCircle
 10
86.04330708661418
 20
-144.71259842519697
 30
0.0
 40
0.09842519685039369
  0
CIRCLE
  5
15B
330
17
100
AcDbEntity
  8
HOLES
100
AcDbCircle
 10
75.45669291338582
 20
-143.45275590551194
 30
0.0
 40
0.09842519685039369
  0
CIRCLE
  5
15C
330
17
100
AcDbEntity
  8
HOLES
100
AcDbCircle
 10
86.04330708661418
 20
-143.45275590551194
 30
0.0
 40
0.09842519685039369
  0
CIRCLE
  5
15D
330
17
100
AcDbEntity
  8
HOLES
100
AcDbCircle
 10
75.45669291338582
 20
-142.1929133858269
 30
0.0
 40
0.09842519685039369
  0
CIRCLE
  5
15E
330
17
100
AcDbEntity
  8
HOLES
100
AcDbCircle
 10
86.04330708661418
 20
-142.1929133858269
 30
0.0
 40
0.09842519685039369
  0
CIRCLE
  5
15F
330
17
100
AcDbEntity
  8
HOLES
100
AcDbCircle
 10
75.45669291338582
 20
-140.93307086614186
 30
0.0
 40
0.09842519685039369
  0
CIRCLE
  5
160
330
17
100
AcDbEntity
  8
HOLES
100
AcDbCircle
 10
86.04330708661418
 20
-140.93307086614186
 30
0.0
 40
0.09842519685039369
  0
CIRCLE
  5
161
330
17
100
AcDbEntity
  8
HOLES
100
AcDbCircle
 10
75.45669291338582
 20
-139.67322834645682
 30
0.0
 40
0.09842519685039369
  0
CIRCLE
  5
162
330
17
100
AcDbEntity
  8
HOLES
100
AcDbCircle
 10
86.04330708661418
 20
-139.67322834645682
 30
0.0
 40
0.09842519685039369
  0
CIRCLE
  5
163
330
17
100
AcDbEntity
  8
HOLES
100
AcDbCircle
 10
75.45669291338582
 20
-138.4133858267718
 30
0.0
 40
0.09842519685039369
  0
CIRCLE
  5
164
330
17
100
AcDbEntity
  8
HOLES
100
AcDbCircle
 10
86.04330708661418
 20
-138.4133858267718
 30
0.0
 40
0.09842519685039369
  0
CIRCLE
  5
165
330
17
100
AcDbEntity
  8
HOLES
100
AcDbCircle
 10
75.45669291338582
 20
-137.15354330708675
 30
0.0
 40
0.09842519685039369
  0
CIRCLE
  5
166
330
17
100
AcDbEntity
  8
HOLES
100
AcDbCircle
 10
86.04330708661418
 20
-137.15354330708675
 30
0.0
 40
0.09842519685039369
  0
CIRCLE
  5
167
330
17
100
AcDbEntity
  8
HOLES
100
AcDbCircle
 10
75.45669291338582
 20
-135.8937007874017
 30
0.0
 40
0.09842519685039369
  0
CIRCLE
  5
168
330
17
100
AcDbEntity
  8
HOLES
100
AcDbCircle
 10
86.04330708661418
 20
-135.8937007874017
 30
0.0
 40
0.09842519685039369
  0
CIRCLE
  5
169
330
17
100
AcDbEntity
  8
HOLES
100
AcDbCircle
 10
75.45669291338582
 20
-134.63385826771668
 30
0.0
 40
0.09842519685039369
  0
CIRCLE
  5
16A
330
17
100
AcDbEntity
  8
HOLES
100
AcDbCircle
 10
86.04330708661418
 20
-134.63385826771668
 30
0.0
 40
0.09842519685039369
  0
CIRCLE
  5
16B
330
17
100
AcDbEntity
  8
HOLES
100
AcDbCircle
 10
75.45669291338582
 20
-133.37401574803164
 30
0.0
 40
0.09842519685039369
  0
CIRCLE
  5
16C
330
17
100
AcDbEntity
  8
HOLES
100
AcDbCircle
 10
86.04330708661418
 20
-133.37401574803164
 30
0.0
 40
0.09842519685039369
  0
CIRCLE
  5
16D
330
17
100
AcDbEntity
  8
HOLES
100
AcDbCircle
 10
75.45669291338582
 20
-132.1141732283466
 30
0.0
 40
0.09842519685039369
  0
CIRCLE
  5
16E
330
17
100
AcDbEntity
  8
HOLES
100
AcDbCircle
 10
86.04330708661418
 20
-132.1141732283466
 30
0.0
 40
0.09842519685039369
  0
CIRCLE
  5
16F
330
17
100
AcDbEntity
  8
HOLES
100
AcDbCircle
 10
75.45669291338582
 20
-130.85433070866156
 30
0.0
 40
0.09842519685039369
  0
CIRCLE
  5
170
330
17
100
AcDbEntity
  8
HOLES
100
AcDbCircle
 10
86.04330708661418
 20
-130.85433070866156
 30
0.0
 40
0.09842519685039369
  0
CIRCLE
  5
171
330
17
100
AcDbEntity
  8
HOLES
100
AcDbCircle
 10
75.45669291338582
 20
-129.59448818897653
 30
0.0
 40
0.09842519685039369
  0
CIRCLE
  5
172
330
17
100
AcDbEntity
  8
HOLES
100
AcDbCircle
 10
86.04330708661418
 20
-129.59448818897653
 30
0.0
 40
0.09842519685039369
  0
MTEXT
  5
173
330
17
100
AcDbEntity
  8
LABELS
100
AcDbMText
 10
80.75
 20
-173.75
 30
0.0
 40
1.0
 71
5
  1
Right Side\P13.500" x 93.500"
  0
LWPOLYLINE
  5
174
330
17
100
AcDbEntity
  8
OUTLINE
100
AcDbPolyline
 90
5
 70
0
 10
0.0
 20
-236.0
 10
55.0
 20
-236.0
 10
55.0
 20
-222.5
 10
0.0
 20
-222.5
 10
0.0
 20
-236.0
  0
MTEXT
  5
175
330
17
100
AcDbEntity
  8
LABELS
100
AcDbMText
 10
27.5
 20
-229.25
 30
0.0
 40
1.0
 71
5
  1
Top\P55.000" x 13.500"
  0
LWPOLYLINE
  5
176
330
17
100
AcDbEntity
  8
OUTLINE
100
AcDbPolyline
 90
5
 70
0
 10
57.0
 20
-236.0
 10
69.8125
 20
-236.0
 10
69.8125
 20
-223.5
 10
57.0
 20
-223.5
 10
57.0
 20
-236.0
  0
MTEXT
  5
177
330
17
100
AcDbEntity
  8
LABELS
100
AcDbMText
 10
63.40625
 20
-229.75
 30
0.0
 40
1.0
 71
5
  1
Horizontal Divider\P12.812" x 12.500"
  0
LWPOLYLINE
  5
178
330
17
100
AcDbEntity
  8
OUTLINE
100
AcDbPolyline
 90
5
 70
0
 10
71.8125
 20
-236.0
 10
84.625
 20
-236.0
 10
84.625
 20
-223.5
 10
71.8125
 20
-223.5
 10
71.8125
 20
-236.0
  0
MTEXT
  5
179
330
17
100
AcDbEntity
  8
LABELS
100
AcDbMText
 10
78.21875
 20
-229.75
 30
0.0
 40
1.0
 71
5
  1
Horizontal Divider\P12.812" x 12.500"
  0
LWPOLYLINE
  5
17A
330
17
100
AcDbEntity
  8
OUTLINE
100
AcDbPolyline
 90
5
 70
0
 10
86.625
 20
-236.0
 10
99.4375
 20
-236.0
 10
99.4375
 20
-223.5
 10
86.625
 20
-223.5
 10
86.625
 20
-236.0
  0
MTEXT
  5
17B
330
17
100
AcDbEntity
  8
LABELS
100
AcDbMText
 10
93.03125
 20
-229.75
 30
0.0
 40
1.0
 71
5
  1
Horizontal Divider\P12.812" x 12.500"
  0
LWPOLYLINE
  5
17C
330
17
100
AcDbEntity
  8
OUTLINE
100
AcDbPolyline
 90
5
 70
0
 10
0.0
 20
-281.25
 10
12.8125
 20
-281.25
 10
12.8125
 20
-268.75
 10
0.0
 20
-268.75
 10
0.0
 20
-281.25
  0
MTEXT
  5
17D
330
17
100
AcDbEntity
  8
LABELS
100
AcDbMText
 10
6.40625
 20
-275.0
 30
0.0
 40
1.0
 71
5
  1
Horizontal Divider\P12.812" x 12.500"
  0
LWPOLYLINE
  5
17E
330
17
100
AcDbEntity
  8
OUTLINE
100
AcDbPolyline
 90
5
 70
0
 10
14.8125
 20
-281.25
 10
28.3125
 20
-281.25
 10
28.3125
 20
-238.0
 10
14.8125
 20
-238.0
 10
14.8125
 20
-281.25
  0
CIRCLE
  5
17F
330
17
100
AcDbEntity
  8
HOLES
100
AcDbCircle
 10
16.269192913385826
 20
-279.79330708661416
 30
0.0
 40
0.09842519685039369
  0
CIRCLE
  5
180
330
17
100
AcDbEntity
  8
HOLES
100
AcDbCircle
 10
26.855807086614174
 20
-279.79330708661416
 30
0.0
 40
0.09842519685039369
  0
CIRCLE
  5
181
330
17
100
AcDbEntity
  8
HOLES
100
AcDbCircle
 10
16.269192913385826
 20
-278.5334645669291
 30
0.0
 40
0.09842519685039369
  0
CIRCLE
  5
182
330
17
100
AcDbEntity
  8
HOLES
100
AcDbCircle
 10
26.855807086614174
 20
-278.5334645669291
 30
0.0
 40
0.09842519685039369
  0
CIRCLE
  5
183
330
17
100
AcDbEntity
  8
HOLES
100
AcDbCircle
 10
16.269192913385826
 20
-277.2736220472441
 30
0.0
 40
0.09842519685039369
  0
CIRCLE
  5
184
330
17
100
AcDbEntity
  8
HOLES
100
AcDbCircle
 10
26.855807086614174
 20
-277.2736220472441
 30
0.0
 40
0.09842519685039369
  0
CIRCLE
  5
185
330
17
100
AcDbEntity
  8
HOLES
100
AcDbCircle
 10
16.269192913385826
 20
-276.01377952755905
 30
0.0
 40
0.09842519685039369
  0
CIRCLE
  5
186
330
17
100
AcDbEntity
  8
HOLES
100
AcDbCircle
 10
26.855807086614174
 20
-276.01377952755905
 30
0.0
 40
0.09842519685039369
  0
CIRCLE
  5
187
330
17
100
AcDbEntity
  8
HOLES
100
AcDbCircle
 10
16.269192913385826
 20
-274.753937007874
 30
0.0
 40
0.09842519685039369
  0
CIRCLE
  5
188
330
17
100
AcDbEntity
  8
HOLES
100
AcDbCircle
 10
26.855807086614174
 20
-274.753937007874
 30
0.0
 40
0.09842519685039369
  0
CIRCLE
  5
189
330
17
100
AcDbEntity
  8
HOLES
100
AcDbCircle
 10
16.269192913385826
 20
-273.494094488189
 30
0.0
 40
0.09842519685039369
  0
CIRCLE
  5
18A
330
17
100
AcDbEntity
  8
HOLES
100
AcDbCircle
 10
26.855807086614174
 20
-273.494094488189
 30
0.0
 40
0.09842519685039369
  0
CIRCLE
  5
18B
330
17
100
AcDbEntity
  8
HOLES
100
AcDbCircle
 10
16.269192913385826
 20
-272.23425196850394
 30
0.0
 40
0.09842519685039369
  0
CIRCLE
  5
18C
330
17
100
AcDbEntity
  8
HOLES
100
AcDbCircle
 10
26.855807086614174
 20
-272.23425196850394
 30
0.0
 40
0.09842519685039369
  0
CIRCLE
  5
18D
330
17
100
AcDbEntity
  8
HOLES
100
AcDbCircle
 10
16.269192913385826
 20
-270.9744094488189
 30
0.0
 40
0.09842519685039369
  0
CIRCLE
  5
18E
330
17
100
AcDbEntity
  8
HOLES
100
AcDbCircle
 10
26.855807086614174
 20
-270.9744094488189
 30
0.0
 40
0.09842519685039369
  0
CIRCLE
  5
18F
330
17
100
AcDbEntity
  8
HOLES
100
AcDbCircle
 10
16.269192913385826
 20
-269.71456692913387
 30
0.0
 40
0.09842519685039369
  0
CIRCLE
  5
190
330
17
100
AcDbEntity
  8
HOLES
100
AcDbCircle
 10
26.855807086614174
 20
-269.71456692913387
 30
0.0
 40
0.09842519685039369
  0
CIRCLE
  5
191
330
17
100
AcDbEntity
  8
HOLES
100
AcDbCircle
 10
16.269192913385826
 20
-268.45472440944883
 30
0.0
 40
0.09842519685039369
  0
CIRCLE
  5
192
330
17
100
AcDbEntity
  8
HOLES
100
AcDbCircle
 10
26.855807086614174
 20
-268.45472440944883
 30
0.0
 40
0.09842519685039369
  0
CIRCLE
  5
193
330
17
100
AcDbEntity
  8
HOLES
100
AcDbCircle
 10
16.269192913385826
 20
-267.1948818897638
 30
0.0
 40
0.09842519685039369
  0
CIRCLE
  5
194
330
17
100
AcDbEntity
  8
HOLES
100
AcDbCircle
 10
26.855807086614174
 20
-267.1948818897638
 30
0.0
 40
0.09842519685039369
  0
CIRCLE
  5
195
330
17
100
AcDbEntity
  8
HOLES
100
AcDbCircle
 10
16.269192913385826
 20
-265.93503937007875
 30
0.0
 40
0.09842519685039369
  0
CIRCLE
  5
196
330
17
100
AcDbEntity
  8
HOLES
100
AcDbCircle
 10
26.855807086614174
 20
-265.93503937007875
 30
0.0
 40
0.09842519685039369
  0
CIRCLE
  5
197
330
17
100
AcDbEntity
  8
HOLES
100
AcDbCircle
 10
16.269192913385826
 20
-264.6751968503937
 30
0.0
 40
0.09842519685039369
  0
CIRCLE
  5
198
330
17
100
AcDbEntity
  8
HOLES
100
AcDbCircle
 10
26.855807086614174
 20
-264.6751968503937
 30
0.0
 40
0.09842519685039369
  0
CIRCLE
  5
199
330
17
100
AcDbEntity
  8
HOLES
100
AcDbCircle
 10
16.269192913385826
 20
-263.4153543307087
 30
0.0
 40
0.09842519685039369
  0
CIRCLE
  5
19A
330
17
100
AcDbEntity
  8
HOLES
100
AcDbCircle
 10
26.855807086614174
 20
-263.4153543307087
 30
0.0
 40
0.09842519685039369
  0
CIRCLE
  5
19B
330
17
100
AcDbEntity
  8
HOLES
100
AcDbCircle
 10
16.269192913385826
 20
-262.15551181102364
 30
0.0
 40
0.09842519685039369
  0
CIRCLE
  5
19C
330
17
100
AcDbEntity
  8
HOLES
100
AcDbCircle
 10
26.855807086614174
 20
-262.15551181102364
 30
0.0
 40
0.09842519685039369
  0
CIRCLE
  5
19D
330
17
100
AcDbEntity
  8
HOLES
100
AcDbCircle
 10
16.269192913385826
 20
-260.8956692913386
 30
0.0
 40
0.09842519685039369
  0
CIRCLE
  5
19E
330
17
100
AcDbEntity
  8
HOLES
100
AcDbCircle
 10
26.855807086614174
 20
-260.8956692913386
 30
0.0
 40
0.09842519685039369
  0
CIRCLE
  5
19F
330
17
100
AcDbEntity
  8
HOLES
100
AcDbCircle
 10
16.269192913385826
 20
-259.63582677165357
 30
0.0
 40
0.09842519685039369
  0
CIRCLE
  5
1A0
330
17
100
AcDbEntity
  8
HOLES
100
AcDbCircle
 10
26.855807086614174
 20
-259.63582677165357
 30
0.0
 40
0.09842519685039369
  0
CIRCLE
  5
1A1
330
17
100
AcDbEntity
  8
HOLES
100
AcDbCircle
 10
16.269192913385826
 20
-258.37598425196853
 30
0.0
 40
0.09842519685039369
  0
CIRCLE
  5
1A2
330
17
100
AcDbEntity
  8
HOLES
100
AcDbCircle
 10
26.855807086614174
 20
-258.37598425196853
 30
0.0
 40
0.09842519685039369
  0
CIRCLE
  5
1A3
330
17
100
AcDbEntity
  8
HOLES
100
AcDbCircle
 10
16.269192913385826
 20
-257.1161417322835
 30
0.0
 40
0.09842519685039369
  0
CIRCLE
  5
1A4
330
17
100
AcDbEntity
  8
HOLES
100
AcDbCircle
 10
26.855807086614174
 20
-257.1161417322835
 30
0.0
 40
0.09842519685039369
  0
CIRCLE
  5
1A5
330
17
100
AcDbEntity
  8
HOLES
100
AcDbCircle
 10
16.269192913385826
 20
-255.85629921259846
 30
0.0
 40
0.09842519685039369
  0
CIRCLE
  5
1A6
330
17
100
AcDbEntity
  8
HOLES
100
AcDbCircle
 10
26.855807086614174
 20
-255.85629921259846
 30
0.0
 40
0.09842519685039369
  0
CIRCLE
  5
1A7
330
17
100
AcDbEntity
  8
HOLES
100
AcDbCircle
 10
16.269192913385826
 20
-254.59645669291342
 30
0.0
 40
0.09842519685039369
  0
CIRCLE
  5
1A8
330
17
100
AcDbEntity
  8
HOLES
100
AcDbCircle
 10
26.855807086614174
 20
-254.59645669291342
 30
0.0
 40
0.09842519685039369
  0
CIRCLE
  5
1A9
330
17
100
AcDbEntity
  8
HOLES
100
AcDbCircle
 10
16.269192913385826
 20
-253.33661417322838
 30
0.0
 40
0.09842519685039369
  0
CIRCLE
  5
1AA
330
17
100
AcDbEntity
  8
HOLES
100
AcDbCircle
 10
26.855807086614174
 20
-253.33661417322838
 30
0.0
 40
0.09842519685039369
  0
CIRCLE
  5
1AB
330
17
100
AcDbEntity
  8
HOLES
100
AcDbCircle
 10
16.269192913385826
 20
-252.07677165354335
 30
0.0
 40
0.09842519685039369
  0
CIRCLE
  5
1AC
330
17
100
AcDbEntity
  8
HOLES
100
AcDbCircle
 10
26.855807086614174
 20
-252.07677165354335
 30
0.0
 40
0.09842519685039369
  0
CIRCLE
  5
1AD
330
17
100
AcDbEntity
  8
HOLES
100
AcDbCircle
 10
16.269192913385826
 20
-250.8169291338583
 30
0.0
 40
0.09842519685039369
  0
CIRCLE
  5
1AE
330
17
100
AcDbEntity
  8
HOLES
100
AcDbCircle
 10
26.855807086614174
 20
-250.8169291338583
 30
0.0
 40
0.09842519685039369
  0
CIRCLE
  5
1AF
330
17
100
AcDbEntity
  8
HOLES
100
AcDbCircle
 10
16.269192913385826
 20
-249.55708661417327
 30
0.0
 40
0.09842519685039369
  0
CIRCLE
  5
1B0
330
17
100
AcDbEntity
  8
HOLES
100
AcDbCircle
 10
26.855807086614174
 20
-249.55708661417327
 30
0.0
 40
0.09842519685039369
  0
CIRCLE
  5
1B1
330
17
100
AcDbEntity
  8
HOLES
100
AcDbCircle
 10
16.269192913385826
 20
-248.29724409448824
 30
0.0
 40
0.09842519685039369
  0
CIRCLE
  5
1B2
330
17
100
AcDbEntity
  8
HOLES
100
AcDbCircle
 10
26.855807086614174
 20
-248.29724409448824
 30
0.0
 40
0.09842519685039369
  0
CIRCLE
  5
1B3
330
17
100
AcDbEntity
  8
HOLES
100
AcDbCircle
 10
16.269192913385826
 20
-247.0374015748032
 30
0.0
 40
0.09842519685039369
  0
CIRCLE
  5
1B4
330
17
100
AcDbEntity
  8
HOLES
100
AcDbCircle
 10
26.855807086614174
 20
-247.0374015748032
 30
0.0
 40
0.09842519685039369
  0
CIRCLE
  5
1B5
330
17
100
AcDbEntity
  8
HOLES
100
AcDbCircle
 10
16.269192913385826
 20
-245.77755905511816
 30
0.0
 40
0.09842519685039369
  0
CIRCLE
  5
1B6
330
17
100
AcDbEntity
  8
HOLES
100
AcDbCircle
 10
26.855807086614174
 20
-245.77755905511816
 30
0.0
 40
0.09842519685039369
  0
CIRCLE
  5
1B7
330
17
100
AcDbEntity
  8
HOLES
100
AcDbCircle
 10
16.269192913385826
 20
-244.51771653543312
 30
0.0
 40
0.09842519685039369
  0
CIRCLE
  5
1B8
330
17
100
AcDbEntity
  8
HOLES
100
AcDbCircle
 10
26.855807086614174
 20
-244.51771653543312
 30
0.0
 40
0.09842519685039369
  0
CIRCLE
  5
1B9
330
17
100
AcDbEntity
  8
HOLES
100
AcDbCircle
 10
16.269192913385826
 20
-243.2578740157481
 30
0.0
 40
0.09842519685039369
  0
CIRCLE
  5
1BA
330
17
100
AcDbEntity
  8
HOLES
100
AcDbCircle
 10
26.855807086614174
 20
-243.2578740157481
 30
0.0
 40
0.09842519685039369
  0
CIRCLE
  5
1BB
330
17
100
AcDbEntity
  8
HOLES
100
AcDbCircle
 10
16.269192913385826
 20
-241.99803149606305
 30
0.0
 40
0.09842519685039369
  0
CIRCLE
  5
1BC
330
17
100
AcDbEntity
  8
HOLES
100
AcDbCircle
 10
26.855807086614174
 20
-241.99803149606305
 30
0.0
 40
0.09842519685039369
  0
CIRCLE
  5
1BD
330
17
100
AcDbEntity
  8
HOLES
100
AcDbCircle
 10
16.269192913385826
 20
-240.738188976378
 30
0.0
 40
0.09842519685039369
  0
CIRCLE
  5
1BE
330
17
100
AcDbEntity
  8
HOLES
100
AcDbCircle
 10
26.855807086614174
 20
-240.738188976378
 30
0.0
 40
0.09842519685039369
  0
CIRCLE
  5
1BF
330
17
100
AcDbEntity
  8
HOLES
100
AcDbCircle
 10
16.269192913385826
 20
-239.47834645669298
 30
0.0
 40
0.09842519685039369
  0
CIRCLE
  5
1C0
330
17
100
AcDbEntity
  8
HOLES
100
AcDbCircle
 10
26.855807086614174
 20
-239.47834645669298
 30
0.0
 40
0.09842519685039369
  0
MTEXT
  5
1C1
330
17
100
AcDbEntity
  8
LABELS
100
AcDbMText
 10
21.5625
 20
-259.625
 30
0.0
 40
1.0
 71
5
  1
Divider\P13.500" x 43.250"
  0
LWPOLYLINE
  5
1C2
330
17
100
AcDbEntity
  8
OUTLINE
100
AcDbPolyline
 90
5
 70
0
 10
30.3125
 20
-281.25
 10
85.3125
 20
-281.25
 10
85.3125
 20
-270.75
 10
30.3125
 20
-270.75
 10
30.3125
 20
-281.25
  0
MTEXT
  5
1C3
330
17
100
AcDbEntity
  8
LABELS
100
AcDbMText
 10
57.8125
 20
-276.0
 30
0.0
 40
0.84
 71
5
  1
Bottom\P55.000" x 10.500"
  0
LWPOLYLINE
  5
1C4
330
17
100
AcDbEntity
  8
OUTLINE
100
AcDbPolyline
 90
5
 70
0
 10
87.3125
 20
-281.25
 10
98.625
 20
-281.25
 10
98.625
 20
-270.5
 10
87.3125
 20
-270.5
 10
87.3125
 20
-281.25
  0
MTEXT
  5
1C5
330
17
100
AcDbEntity
  8
LABELS
100
AcDbMText
 10
92.96875
 20
-275.875
 30
0.0
 40
0.86
 71
5
  1
Drawer Bottom\P11.312" x 10.750"
  0
LWPOLYLINE
  5
1C6
330
17
100
AcDbEntity
  8
OUTLINE
100
AcDbPolyline
 90
5
 70
0
 10
0.0
 20
-295.25
 10
11.3125
 20
-295.25
 10
11.3125
 20
-284.5
 10
0.0
 20
-284.5
 10
0.0
 20
-295.25
  0
MTEXT
  5
1C7
330
17
100
AcDbEntity
  8
LABELS
100
AcDbMText
 10
5.65625
 20
-289.875
 30
0.0
 40
0.86
 71
5
  1
Drawer Bottom\P11.312" x 10.750"
  0
LWPOLYLINE
  5
1C8
330
17
100
AcDbEntity
  8
OUTLINE
100
AcDbPolyline
 90
5
 70
0
 10
13.3125
 20
-295.25
 10
24.625
 20
-295.25
 10
24.625
 20
-284.5
 10
13.3125
 20
-284.5
 10
13.3125
 20
-295.25
  0
MTEXT
  5
1C9
330
17
100
AcDbEntity
  8
LABELS
100
AcDbMText
 10
18.96875
 20
-289.875
 30
0.0
 40
0.86
 71
5
  1
Drawer Bottom\P11.312" x 10.750"
  0
LWPOLYLINE
  5
1CA
330
17
100
AcDbEntity
  8
OUTLINE
100
AcDbPolyline
 90
5
 70
0
 10
26.625
 20
-295.25
 10
37.9375
 20
-295.25
 10
37.9375
 20
-284.5
 10
26.625
 20
-284.5
 10
26.625
 20
-295.25
  0
MTEXT
  5
1CB
330
17
100
AcDbEntity
  8
LABELS
100
AcDbMText
 10
32.28125
 20
-289.875
 30
0.0
 40
0.86
 71
5
  1
Drawer Bottom\P11.312" x 10.750"
  0
LWPOLYLINE
  5
1CC
330
17
100
AcDbEntity
  8
OUTLINE
100
AcDbPolyline
 90
5
 70
0
 10
39.9375
 20
-295.25
 10
53.4375
 20
-295.25
 10
53.4375
 20
-283.25
 10
39.9375
 20
-283.25
 10
39.9375
 20
-295.25
  0
CIRCLE
  5
1CD
330
17
100
AcDbEntity
  8
HOLES
100
AcDbCircle
 10
41.39419291338583
 20
-293.79330708661416
 30
0.0
 40
0.09842519685039369
  0
CIRCLE
  5
1CE
330
17
100
AcDbEntity
  8
HOLES
100
AcDbCircle
 10
51.98080708661418
 20
-293.79330708661416
 30
0.0
 40
0.09842519685039369
  0
CIRCLE
  5
1CF
330
17
100
AcDbEntity
  8
HOLES
100
AcDbCircle
 10
41.39419291338583
 20
-292.5334645669291
 30
0.0
 40
0.09842519685039369
  0
CIRCLE
  5
1D0
330
17
100
AcDbEntity
  8
HOLES
100
AcDbCircle
 10
51.98080708661418
 20
-292.5334645669291
 30
0.0
 40
0.09842519685039369
  0
CIRCLE
  5
1D1
330
17
100
AcDbEntity
  8
HOLES
100
AcDbCircle
 10
41.39419291338583
 20
-291.2736220472441
 30
0.0
 40
0.09842519685039369
  0
CIRCLE
  5
1D2
330
17
100
AcDbEntity
  8
HOLES
100
AcDbCircle
 10
51.98080708661418
 20
-291.2736220472441
 30
0.0
 40
0.09842519685039369
  0
CIRCLE
  5
1D3
330
17
100
AcDbEntity
  8
HOLES
100
AcDbCircle
 10
41.39419291338583
 20
-290.01377952755905
 30
0.0
 40
0.09842519685039369
  0
CIRCLE
  5
1D4
330
17
100
AcDbEntity
  8
HOLES
100
AcDbCircle
 10
51.98080708661418
 20
-290.01377952755905
 30
0.0
 40
0.09842519685039369
  0
CIRCLE
  5
1D5
330
17
100
AcDbEntity
  8
HOLES
100
AcDbCircle
 10
41.39419291338583
 20
-288.753937007874
 30
0.0
 40
0.09842519685039369
  0
CIRCLE
  5
1D6
330
17
100
AcDbEntity
  8
HOLES
100
AcDbCircle
 10
51.98080708661418
 20
-288.753937007874
 30
0.0
 40
0.09842519685039369
  0
CIRCLE
  5
1D7
330
17
100
AcDbEntity
  8
HOLES
100
AcDbCircle
 10
41.39419291338583
 20
-287.494094488189
 30
0.0
 40
0.09842519685039369
  0
CIRCLE
  5
1D8
330
17
100
AcDbEntity
  8
HOLES
100
AcDbCircle
 10
51.98080708661418
 20
-287.494094488189
 30
0.0
 40
0.09842519685039369
  0
CIRCLE
  5
1D9
330
17
100
AcDbEntity
  8
HOLES
100
AcDbCircle
 10
41.39419291338583
 20
-286.23425196850394
 30
0.0
 40
0.09842519685039369
  0
CIRCLE
  5
1DA
330
17
100
AcDbEntity
  8
HOLES
100
AcDbCircle
 10
51.98080708661418
 20
-286.23425196850394
 30
0.0
 40
0.09842519685039369
  0
CIRCLE
  5
1DB
330
17
100
AcDbEntity
  8
HOLES
100
AcDbCircle
 10
41.39419291338583
 20
-284.9744094488189
 30
0.0
 40
0.09842519685039369
  0
CIRCLE
  5
1DC
330
17
100
AcDbEntity
  8
HOLES
100
AcDbCircle
 10
51.98080708661418
 20
-284.9744094488189
 30
0.0
 40
0.09842519685039369
  0
MTEXT
  5
1DD
330
17
100
AcDbEntity
  8
LABELS
100
AcDbMText
 10
46.6875
 20
-289.25
 30
0.0
 40
0.96
 71
5
  1
Divider\P13.500" x 12.000"
  0
LWPOLYLINE
  5
1DE
330
17
100
AcDbEntity
  8
OUTLINE
100
AcDbPolyline
 90
5
 70
0
 10
0.0
 20
-309.25
 10
13.5
 20
-309.25
 10
13.5
 20
-297.25
 10
0.0
 20
-297.25
 10
0.0
 20
-309.25
  0
CIRCLE
  5
1DF
330
17
100
AcDbEntity
  8
HOLES
100
AcDbCircle
 10
1.4566929133858268
 20
-307.79330708661416
 30
0.0
 40
0.09842519685039369
  0
CIRCLE
  5
1E0
330
17
100
AcDbEntity
  8
HOLES
100
AcDbCircle
 10
12.043307086614174
 20
-307.79330708661416
 30
0.0
 40
0.09842519685039369
  0
CIRCLE
  5
1E1
330
17
100
AcDbEntity
  8
HOLES
100
AcDbCircle
 10
1.4566929133858268
 20
-306.5334645669291
 30
0.0
 40
0.09842519685039369
  0
CIRCLE
  5
1E2
330
17
100
AcDbEntity
  8
HOLES
100
AcDbCircle
 10
12.043307086614174
 20
-306.5334645669291
 30
0.0
 40
0.09842519685039369
  0
CIRCLE
  5
1E3
330
17
100
AcDbEntity
  8
HOLES
100
AcDbCircle
 10
1.4566929133858268
 20
-305.2736220472441
 30
0.0
 40
0.09842519685039369
  0
CIRCLE
  5
1E4
330
17
100
AcDbEntity
  8
HOLES
100
AcDbCircle
 10
12.043307086614174
 20
-305.2736220472441
 30
0.0
 40
0.09842519685039369
  0
CIRCLE
  5
1E5
330
17
100
AcDbEntity
  8
HOLES
100
AcDbCircle
 10
1.4566929133858268
 20
-304.01377952755905
 30
0.0
 40
0.09842519685039369
  0
CIRCLE
  5
1E6
330
17
100
AcDbEntity
  8
HOLES
100
AcDbCircle
 10
12.043307086614174
 20
-304.01377952755905
 30
0.0
 40
0.09842519685039369
  0
CIRCLE
  5
1E7
330
17
100
AcDbEntity
  8
HOLES
100
AcDbCircle
 10
1.4566929133858268
 20
-302.753937007874
 30
0.0
 40
0.09842519685039369
  0
CIRCLE
  5
1E8
330
17
100
AcDbEntity
  8
HOLES
100
AcDbCircle
 10
12.043307086614174
 20
-302.753937007874
 30
0.0
 40
0.09842519685039369
  0
CIRCLE
  5
1E9
330
17
100
AcDbEntity
  8
HOLES
100
AcDbCircle
 10
1.4566929133858268
 20
-301.494094488189
 30
0.0
 40
0.09842519685039369
  0
CIRCLE
  5
1EA
330
17
100
AcDbEntity
  8
HOLES
100
AcDbCircle
 10
12.043307086614174
 20
-301.494094488189
 30
0.0
 40
0.09842519685039369
  0
CIRCLE
  5
1EB
330
17
100
AcDbEntity
  8
HOLES
100
AcDbCircle
 10
1.4566929133858268
 20
-300.23425196850394
 30
0.0
 40
0.09842519685039369
  0
CIRCLE
  5
1EC
330
17
100
AcDbEntity
  8
HOLES
100
AcDbCircle
 10
12.043307086614174
 20
-300.23425196850394
 30
0.0
 40
0.09842519685039369
  0
CIRCLE
  5
1ED
330
17
100
AcDbEntity
  8
HOLES
100
AcDbCircle
 10
1.4566929133858268
 20
-298.9744094488189
 30
0.0
 40
0.09842519685039369
  0
CIRCLE
  5
1EE
330
17
100
AcDbEntity
  8
HOLES
100
AcDbCircle
 10
12.043307086614174
 20
-298.9744094488189
 30
0.0
 40
0.09842519685039369
  0
MTEXT
  5
1EF
330
17
100
AcDbEntity
  8
LABELS
100
AcDbMText
 10
6.75
 20
-303.25
 30
0.0
 40
0.96
 71
5
  1
Divider\P13.500" x 12.000"
  0
LWPOLYLINE
  5
1F0
330
17
100
AcDbEntity
  8
OUTLINE
100
AcDbPolyline
 90
5
 70
0
 10
15.5
 20
-309.25
 10
29.0
 20
-309.25
 10
29.0
 20
-297.25
 10
15.5
 20
-297.25
 10
15.5
 20
-309.25
  0
CIRCLE
  5
1F1
330
17
100
AcDbEntity
  8
HOLES
100
AcDbCircle
 10
16.956692913385826
 20
-307.79330708661416
 30
0.0
 40
0.09842519685039369
  0
CIRCLE
  5
1F2
330
17
100
AcDbEntity
  8
HOLES
100
AcDbCircle
 10
27.543307086614174
 20
-307.79330708661416
 30
0.0
 40
0.09842519685039369
  0
CIRCLE
  5
1F3
330
17
100
AcDbEntity
  8
HOLES
100
AcDbCircle
 10
16.956692913385826
 20
-306.5334645669291
 30
0.0
 40
0.09842519685039369
  0
CIRCLE
  5
1F4
330
17
100
AcDbEntity
  8
HOLES
100
AcDbCircle
 10
27.543307086614174
 20
-306.5334645669291
 30
0.0
 40
0.09842519685039369
  0
CIRCLE
  5
1F5
330
17
100
AcDbEntity
  8
HOLES
100
AcDbCircle
 10
16.956692913385826
 20
-305.2736220472441
 30
0.0
 40
0.09842519685039369
  0
CIRCLE
  5
1F6
330
17
100
AcDbEntity
  8
HOLES
100
AcDbCircle
 10
27.543307086614174
 20
-305.2736220472441
 30
0.0
 40
0.09842519685039369
  0
CIRCLE
  5
1F7
330
17
100
AcDbEntity
  8
HOLES
100
AcDbCircle
 10
16.956692913385826
 20
-304.01377952755905
 30
0.0
 40
0.09842519685039369
  0
CIRCLE
  5
1F8
330
17
100
AcDbEntity
  8
HOLES
100
AcDbCircle
 10
27.543307086614174
 20
-304.01377952755905
 30
0.0
 40
0.09842519685039369
  0
CIRCLE
  5
1F9
330
17
100
AcDbEntity
  8
HOLES
100
AcDbCircle
 10
16.956692913385826
 20
-302.753937007874
 30
0.0
 40
0.09842519685039369
  0
CIRCLE
  5
1FA
330
17
100
AcDbEntity
  8
HOLES
100
AcDbCircle
 10
27.543307086614174
 20
-302.753937007874
 30
0.0
 40
0.09842519685039369
  0
CIRCLE
  5
1FB
330
17
100
AcDbEntity
  8
HOLES
100
AcDbCircle
 10
16.956692913385826
 20
-301.494094488189
 30
0.0
 40
0.09842519685039369
  0
CIRCLE
  5
1FC
330
17
100
AcDbEntity
  8
HOLES
100
AcDbCircle
 10
27.543307086614174
 20
-301.494094488189
 30
0.0
 40
0.09842519685039369
  0
CIRCLE
  5
1FD
330
17
100
AcDbEntity
  8
HOLES
100
AcDbCircle
 10
16.956692913385826
 20
-300.23425196850394
 30
0.0
 40
0.09842519685039369
  0
CIRCLE
  5
1FE
330
17
100
AcDbEntity
  8
HOLES
100
AcDbCircle
 10
27.543307086614174
 20
-300.23425196850394
 30
0.0
 40
0.09842519685039369
  0
CIRCLE
  5
1FF
330
17
100
AcDbEntity
  8
HOLES
100
AcDbCircle
 10
16.956692913385826
 20
-298.9744094488189
 30
0.0
 40
0.09842519685039369
  0
CIRCLE
  5
200
330
17
100
AcDbEntity
  8
HOLES
100
AcDbCircle
 10
27.543307086614174
 20
-298.9744094488189
 30
0.0
 40
0.09842519685039369
  0
MTEXT
  5
201
330
17
100
AcDbEntity
  8
LABELS
100
AcDbMText
 10
22.25
 20
-303.25
 30
0.0
 40
0.96
 71
5
  1
Divider\P13.500" x 12.000"
  0
LWPOLYLINE
  5
202
330
17
100
AcDbEntity
  8
OUTLINE
100
AcDbPolyline
 90
5
 70
0
 10
31.0
 20
-309.25
 10
42.0
 20
-309.25
 10
42.0
 20
-303.875
 10
31.0
 20
-303.875
 10
31.0
 20
-309.25
  0
MTEXT
  5
203
330
17
100
AcDbEntity
  8
LABELS
100
AcDbMText
 10
36.5
 20
-306.5625
 30
0.0
 40
0.43
 71
5
  1
Drawer Side\P11.000" x 5.375"
  0
LWPOLYLINE
  5
204
330
17
100
AcDbEntity
  8
OUTLINE
100
AcDbPolyline
 90
5
 70
0
 10
44.0
 20
-309.25
 10
55.0
 20
-309.25
 10
55.0
 20
-303.875
 10
44.0
 20
-303.875
 10
44.0
 20
-309.25
  0
MTEXT
  5
205
330
17
100
AcDbEntity
  8
LABELS
100
AcDbMText
 10
49.5
 20
-306.5625
 30
0.0
 40
0.43
 71
5
  1
Drawer Side\P11.000" x 5.375"
  0
LWPOLYLINE
  5
206
330
17
100
AcDbEntity
  8
OUTLINE
100
AcDbPolyline
 90
5
 70
0
 10
0.0
 20
-316.625
 10
11.0
 20
-316.625
 10
11.0
 20
-311.25
 10
0.0
 20
-311.25
 10
0.0
 20
-316.625
  0
MTEXT
  5
207
330
17
100
AcDbEntity
  8
LABELS
100
AcDbMText
 10
5.5
 20
-313.9375
 30
0.0
 40
0.43
 71
5
  1
Drawer Side\P11.000" x 5.375"
  0
LWPOLYLINE
  5
208
330
17
100
AcDbEntity
  8
OUTLINE
100
AcDbPolyline
 90
5
 70
0
 10
13.0
 20
-316.625
 10
24.0
 20
-316.625
 10
24.0
 20
-311.25
 10
13.0
 20
-311.25
 10
13.0
 20
-316.625
  0
MTEXT
  5
209
330
17
100
AcDbEntity
  8
LABELS
100
AcDbMText
 10
18.5
 20
-313.9375
 30
0.0
 40
0.43
 71
5
  1
Drawer Side\P11.000" x 5.375"
  0
LWPOLYLINE
  5
20A
330
17
100
AcDbEntity
  8
OUTLINE
100
AcDbPolyline
 90
5
 70
0
 10
26.0
 20
-316.625
 10
37.0
 20
-316.625
 10
37.0
 20
-311.25
 10
26.0
 20
-311.25
 10
26.0
 20
-316.625
  0
MTEXT
  5
20B
330
17
100
AcDbEntity
  8
LABELS
100
AcDbMText
 10
31.5
 20
-313.9375
 30
0.0
 40
0.43
 71
5
  1
Drawer Side\P11.000" x 5.375"
  0
LWPOLYLINE
  5
20C
330
17
100
AcDbEntity
  8
OUTLINE
100
AcDbPolyline
 90
5
 70
0
 10
39.0
 20
-316.625
 10
50.0
 20
-316.625
 10
50.0
 20
-311.25
 10
39.0
 20
-311.25
 10
39.0
 20
-316.625
  0
MTEXT
  5
20D
330
17
100
AcDbEntity
  8
LABELS
100
AcDbMText
 10
44.5
 20
-313.9375
 30
0.0
 40
0.43
 71
5
  1
Drawer Side\P11.000" x 5.375"
  0
LWPOLYLINE
  5
20E
330
17
100
AcDbEntity
  8
OUTLINE
100
AcDbPolyline
 90
5
 70
0
 10
0.0
 20
-348.625
 10
11.0
 20
-348.625
 10
11.0
 20
-343.25
 10
0.0
 20
-343.25
 10
0.0
 20
-348.625
  0
MTEXT
  5
20F
330
17
100
AcDbEntity
  8
LABELS
100
AcDbMText
 10
5.5
 20
-345.9375
 30
0.0
 40
0.43
 71
5
  1
Drawer Side\P11.000" x 5.375"
  0
LWPOLYLINE
  5
210
330
17
100
AcDbEntity
  8
OUTLINE
100
AcDbPolyline
 90
5
 70
0
 10
13.0
 20
-348.625
 10
24.0
 20
-348.625
 10
24.0
 20
-343.25
 10
13.0
 20
-343.25
 10
13.0
 20
-348.625
  0
MTEXT
  5
211
330
17
100
AcDbEntity
  8
LABELS
100
AcDbMText
 10
18.5
 20
-345.9375
 30
0.0
 40
0.43
 71
5
  1
Drawer Side\P11.000" x 5.375"
  0
LWPOLYLINE
  5
212
330
17
100
AcDbEntity
  8
OUTLINE
100
AcDbPolyline
 90
5
 70
0
 10
26.0
 20
-348.625
 10
39.5
 20
-348.625
 10
39.5
 20
-318.625
 10
26.0
 20
-318.625
 10
26.0
 20
-348.625
  0
CIRCLE
  5
213
330
17
100
AcDbEntity
  8
HOLES
100
AcDbCircle
 10
27.456692913385826
 20
-347.16830708661416
 30
0.0
 40
0.09842519685039369
  0
CIRCLE
  5
214
330
17
100
AcDbEntity
  8
HOLES
100
AcDbCircle
 10
38.04330708661418
 20
-347.16830708661416
 30
0.0
 40
0.09842519685039369
  0
CIRCLE
  5
215
330
17
100
AcDbEntity
  8
HOLES
100
AcDbCircle
 10
27.456692913385826
 20
-345.9084645669291
 30
0.0
 40
0.09842519685039369
  0
CIRCLE
  5
216
330
17
100
AcDbEntity
  8
HOLES
100
AcDbCircle
 10
38.04330708661418
 20
-345.9084645669291
 30
0.0
 40
0.09842519685039369
  0
CIRCLE
  5
217
330
17
100
AcDbEntity
  8
HOLES
100
AcDbCircle
 10
27.456692913385826
 20
-344.6486220472441
 30
0.0
 40
0.09842519685039369
  0
CIRCLE
  5
218
330
17
100
AcDbEntity
  8
HOLES
100
AcDbCircle
 10
38.04330708661418
 20
-344.6486220472441
 30
0.0
 40
0.09842519685039369
  0
CIRCLE
  5
219
330
17
100
AcDbEntity
  8
HOLES
100
AcDbCircle
 10
27.456692913385826
 20
-343.38877952755905
 30
0.0
 40
0.09842519685039369
  0
CIRCLE
  5
21A
330
17
100
AcDbEntity
  8
HOLES
100
AcDbCircle
 10
38.04330708661418
 20
-343.38877952755905
 30
0.0
 40
0.09842519685039369
  0
CIRCLE
  5
21B
330
17
100
AcDbEntity
  8
HOLES
100
AcDbCircle
 10
27.456692913385826
 20
-342.128937007874
 30
0.0
 40
0.09842519685039369
  0
CIRCLE
  5
21C
330
17
100
AcDbEntity
  8
HOLES
100
AcDbCircle
 10
38.04330708661418
 20
-342.128937007874
 30
0.0
 40
0.09842519685039369
  0
CIRCLE
  5
21D
330
17
100
AcDbEntity
  8
HOLES
100
AcDbCircle
 10
27.456692913385826
 20
-340.869094488189
 30
0.0
 40
0.09842519685039369
  0
CIRCLE
  5
21E
330
17
100
AcDbEntity
  8
HOLES
100
AcDbCircle
 10
38.04330708661418
 20
-340.869094488189
 30
0.0
 40
0.09842519685039369
  0
CIRCLE
  5
21F
330
17
100
AcDbEntity
  8
HOLES
100
AcDbCircle
 10
27.456692913385826
 20
-339.60925196850394
 30
0.0
 40
0.09842519685039369
  0
CIRCLE
  5
220
330
17
100
AcDbEntity
  8
HOLES
100
AcDbCircle
 10
38.04330708661418
 20
-339.60925196850394
 30
0.0
 40
0.09842519685039369
  0
CIRCLE
  5
221
330
17
100
AcDbEntity
  8
HOLES
100
AcDbCircle
 10
27.456692913385826
 20
-338.3494094488189
 30
0.0
 40
0.09842519685039369
  0
CIRCLE
  5
222
330
17
100
AcDbEntity
  8
HOLES
100
AcDbCircle
 10
38.04330708661418
 20
-338.3494094488189
 30
0.0
 40
0.09842519685039369
  0
CIRCLE
  5
223
330
17
100
AcDbEntity
  8
HOLES
100
AcDbCircle
 10
27.456692913385826
 20
-337.08956692913387
 30
0.0
 40
0.09842519685039369
  0
CIRCLE
  5
224
330
17
100
AcDbEntity
  8
HOLES
100
AcDbCircle
 10
38.04330708661418
 20
-337.08956692913387
 30
0.0
 40
0.09842519685039369
  0
CIRCLE
  5
225
330
17
100
AcDbEntity
  8
HOLES
100
AcDbCircle
 10
27.456692913385826
 20
-335.82972440944883
 30
0.0
 40
0.09842519685039369
  0
CIRCLE
  5
226
330
17
100
AcDbEntity
  8
HOLES
100
AcDbCircle
 10
38.04330708661418
 20
-335.82972440944883
 30
0.0
 40
0.09842519685039369
  0
CIRCLE
  5
227
330
17
100
AcDbEntity
  8
HOLES
100
AcDbCircle
 10
27.456692913385826
 20
-334.5698818897638
 30
0.0
 40
0.09842519685039369
  0
CIRCLE
  5
228
330
17
100
AcDbEntity
  8
HOLES
100
AcDbCircle
 10
38.04330708661418
 20
-334.5698818897638
 30
0.0
 40
0.09842519685039369
  0
CIRCLE
  5
229
330
17
100
AcDbEntity
  8
HOLES
100
AcDbCircle
 10
27.456692913385826
 20
-333.31003937007875
 30
0.0
 40
0.09842519685039369
  0
CIRCLE
  5
22A
330
17
100
AcDbEntity
  8
HOLES
100
AcDbCircle
 10
38.04330708661418
 20
-333.31003937007875
 30
0.0
 40
0.09842519685039369
  0
CIRCLE
  5
22B
330
17
100
AcDbEntity
  8
HOLES
100
AcDbCircle
 10
27.456692913385826
 20
-332.0501968503937
 30
0.0
 40
0.09842519685039369
  0
CIRCLE
  5
22C
330
17
100
AcDbEntity
  8
HOLES
100
AcDbCircle
 10
38.04330708661418
 20
-332.0501968503937
 30
0.0
 40
0.09842519685039369
  0
CIRCLE
  5
22D
330
17
100
AcDbEntity
  8
HOLES
100
AcDbCircle
 10
27.456692913385826
 20
-330.7903543307087
 30
0.0
 40
0.09842519685039369
  0
CIRCLE
  5
22E
330
17
100
AcDbEntity
  8
HOLES
100
AcDbCircle
 10
38.04330708661418
 20
-330.7903543307087
 30
0.0
 40
0.09842519685039369
  0
CIRCLE
  5
22F
330
17
100
AcDbEntity
  8
HOLES
100
AcDbCircle
 10
27.456692913385826
 20
-329.53051181102364
 30
0.0
 40
0.09842519685039369
  0
CIRCLE
  5
230
330
17
100
AcDbEntity
  8
HOLES
100
AcDbCircle
 10
38.04330708661418
 20
-329.53051181102364
 30
0.0
 40
0.09842519685039369
  0
CIRCLE
  5
231
330
17
100
AcDbEntity
  8
HOLES
100
AcDbCircle
 10
27.456692913385826
 20
-328.2706692913386
 30
0.0
 40
0.09842519685039369
  0
CIRCLE
  5
232
330
17
100
AcDbEntity
  8
HOLES
100
AcDbCircle
 10
38.04330708661418
 20
-328.2706692913386
 30
0.0
 40
0.09842519685039369
  0
CIRCLE
  5
233
330
17
100
AcDbEntity
  8
HOLES
100
AcDbCircle
 10
27.456692913385826
 20
-327.01082677165357
 30
0.0
 40
0.09842519685039369
  0
CIRCLE
  5
234
330
17
100
AcDbEntity
  8
HOLES
100
AcDbCircle
 10
38.04330708661418
 20
-327.01082677165357
 30
0.0
 40
0.09842519685039369
  0
CIRCLE
  5
235
330
17
100
AcDbEntity
  8
HOLES
100
AcDbCircle
 10
27.456692913385826
 20
-325.75098425196853
 30
0.0
 40
0.09842519685039369
  0
CIRCLE
  5
236
330
17
100
AcDbEntity
  8
HOLES
100
AcDbCircle
 10
38.04330708661418
 20
-325.75098425196853
 30
0.0
 40
0.09842519685039369
  0
CIRCLE
  5
237
330
17
100
AcDbEntity
  8
HOLES
100
AcDbCircle
 10
27.456692913385826
 20
-324.4911417322835
 30
0.0
 40
0.09842519685039369
  0
CIRCLE
  5
238
330
17
100
AcDbEntity
  8
HOLES
100
AcDbCircle
 10
38.04330708661418
 20
-324.4911417322835
 30
0.0
 40
0.09842519685039369
  0
CIRCLE
  5
239
330
17
100
AcDbEntity
  8
HOLES
100
AcDbCircle
 10
27.456692913385826
 20
-323.23129921259846
 30
0.0
 40
0.09842519685039369
  0
CIRCLE
  5
23A
330
17
100
AcDbEntity
  8
HOLES
100
AcDbCircle
 10
38.04330708661418
 20
-323.23129921259846
 30
0.0
 40
0.09842519685039369
  0
CIRCLE
  5
23B
330
17
100
AcDbEntity
  8
HOLES
100
AcDbCircle
 10
27.456692913385826
 20
-321.9714566929134
 30
0.0
 40
0.09842519685039369
  0
CIRCLE
  5
23C
330
17
100
AcDbEntity
  8
HOLES
100
AcDbCircle
 10
38.04330708661418
 20
-321.9714566929134
 30
0.0
 40
0.09842519685039369
  0
CIRCLE
  5
23D
330
17
100
AcDbEntity
  8
HOLES
100
AcDbCircle
 10
27.456692913385826
 20
-320.7116141732284
 30
0.0
 40
0.09842519685039369
  0
CIRCLE
  5
23E
330
17
100
AcDbEntity
  8
HOLES
100
AcDbCircle
 10
38.04330708661418
 20
-320.7116141732284
 30
0.0
 40
0.09842519685039369
  0
MTEXT
  5
23F
330
17
100
AcDbEntity
  8
LABELS
100
AcDbMText
 10
32.75
 20
-333.625
 30
0.0
 40
1.0
 71
5
  1
Divider\P13.500" x 30.000"
  0
LWPOLYLINE
  5
240
330
17
100
AcDbEntity
  8
OUTLINE
100
AcDbPolyline
 90
5
 70
0
 10
41.5
 20
-348.625
 10
54.3125
 20
-348.625
 10
54.3125
 20
-342.625
 10
41.5
 20
-342.625
 10
41.5
 20
-348.625
  0
MTEXT
  5
241
330
17
100
AcDbEntity
  8
LABELS
100
AcDbMText
 10
47.90625
 20
-345.625
 30
0.0
 40
0.48
 71
5
  1
Drawer Front\P12.812" x 6.000"
  0
LWPOLYLINE
  5
242
330
17
100
AcDbEntity
  8
OUTLINE
100
AcDbPolyline
 90
5
 70
0
 10
0.0
 20
-356.625
 10
12.8125
 20
-356.625
 10
12.8125
 20
-350.625
 10
0.0
 20
-350.625
 10
0.0
 20
-356.625
  0
MTEXT
  5
243
330
17
100
AcDbEntity
  8
LABELS
100
AcDbMText
 10
6.40625
 20
-353.625
 30
0.0
 40
0.48
 71
5
  1
Drawer Front\P12.812" x 6.000"
  0
LWPOLYLINE
  5
244
330
17
100
AcDbEntity
  8
OUTLINE
100
AcDbPolyline
 90
5
 70
0
 10
14.8125
 20
-356.625
 10
27.625
 20
-356.625
 10
27.625
 20
-350.625
 10
14.8125
 20
-350.625
 10
14.8125
 20
-356.625
  0
MTEXT
  5
245
330
17
100
AcDbEntity
  8
LABELS
100
AcDbMText
 10
21.21875
 20
-353.625
 30
0.0
 40
0.48
 71
5
  1
Drawer Front\P12.812" x 6.000"
  0
LWPOLYLINE
  5
246
330
17
100
AcDbEntity
  8
OUTLINE
100
AcDbPolyline
 90
5
 70
0
 10
29.625
 20
-356.625
 10
42.4375
 20
-356.625
 10
42.4375
 20
-350.625
 10
29.625
 20
-350.625
 10
29.625
 20
-356.625
  0
MTEXT
  5
247
330
17
100
AcDbEntity
  8
LABELS
100
AcDbMText
 10
36.03125
 20
-353.625
 30
0.0
 40
0.48
 71
5
  1
Drawer Front\P12.812" x 6.000"
  0
LWPOLYLINE
  5
248
330
17
100
AcDbEntity
  8
OUTLINE
100
AcDbPolyline
 90
5
 70
0
 10
44.4375
 20
-356.625
 10
57.9375
 20
-356.625
 10
57.9375
 20
-350.625
 10
44.4375
 20
-350.625
 10
44.4375
 20
-356.625
  0
CIRCLE
  5
249
330
17
100
AcDbEntity
  8
HOLES
100
AcDbCircle
 10
45.89419291338583
 20
-355.16830708661416
 30
0.0
 40
0.09842519685039369
  0
CIRCLE
  5
24A
330
17
100
AcDbEntity
  8
HOLES
100
AcDbCircle
 10
56.48080708661418
 20
-355.16830708661416
 30
0.0
 40
0.09842519685039369
  0
CIRCLE
  5
24B
330
17
100
AcDbEntity
  8
HOLES
100
AcDbCircle
 10
45.89419291338583
 20
-353.9084645669291
 30
0.0
 40
0.09842519685039369
  0
CIRCLE
  5
24C
330
17
100
AcDbEntity
  8
HOLES
100
AcDbCircle
 10
56.48080708661418
 20
-353.9084645669291
 30
0.0
 40
0.09842519685039369
  0
CIRCLE
  5
24D
330
17
100
AcDbEntity
  8
HOLES
100
AcDbCircle
 10
45.89419291338583
 20
-352.6486220472441
 30
0.0
 40
0.09842519685039369
  0
CIRCLE
  5
24E
330
17
100
AcDbEntity
  8
HOLES
100
AcDbCircle
 10
56.48080708661418
 20
-352.6486220472441
 30
0.0
 40
0.09842519685039369
  0
MTEXT
  5
24F
330
17
100
AcDbEntity
  8
LABELS
100
AcDbMText
 10
51.1875
 20
-353.625
 30
0.0
 40
0.48
 71
5
  1
Divider\P13.500" x 6.000"
  0
LWPOLYLINE
  5
250
330
17
100
AcDbEntity
  8
OUTLINE
100
AcDbPolyline
 90
5
 70
0
 10
0.0
 20
-364.625
 10
13.5
 20
-364.625
 10
13.5
 20
-358.625
 10
0.0
 20
-358.625
 10
0.0
 20
-364.625
  0
CIRCLE
  5
251
330
17
100
AcDbEntity
  8
HOLES
100
AcDbCircle
 10
1.4566929133858268
 20
-363.16830708661416
 30
0.0
 40
0.09842519685039369
  0
CIRCLE
  5
252
330
17
100
AcDbEntity
  8
HOLES
100
AcDbCircle
 10
12.043307086614174
 20
-363.16830708661416
 30
0.0
 40
0.09842519685039369
  0
CIRCLE
  5
253
330
17
100
AcDbEntity
  8
HOLES
100
AcDbCircle
 10
1.4566929133858268
 20
-361.9084645669291
 30
0.0
 40
0.09842519685039369
  0
CIRCLE
  5
254
330
17
100
AcDbEntity
  8
HOLES
100
AcDbCircle
 10
12.043307086614174
 20
-361.9084645669291
 30
0.0
 40
0.09842519685039369
  0
CIRCLE
  5
255
330
17
100
AcDbEntity
  8
HOLES
100
AcDbCircle
 10
1.4566929133858268
 20
-360.6486220472441
 30
0.0
 40
0.09842519685039369
  0
CIRCLE
  5
256
330
17
100
AcDbEntity
  8
HOLES
100
AcDbCircle
 10
12.043307086614174
 20
-360.6486220472441
 30
0.0
 40
0.09842519685039369
  0
MTEXT
  5
257
330
17
100
AcDbEntity
  8
LABELS
100
AcDbMText
 10
6.75
 20
-361.625
 30
0.0
 40
0.48
 71
5
  1
Divider\P13.500" x 6.000"
  0
LWPOLYLINE
  5
258
330
17
100
AcDbEntity
  8
OUTLINE
100
AcDbPolyline
 90
5
 70
0
 10
15.5
 20
-364.625
 10
29.0
 20
-364.625
 10
29.0
 20
-358.625
 10
15.5
 20
-358.625
 10
15.5
 20
-364.625
  0
CIRCLE
  5
259
330
17
100
AcDbEntity
  8
HOLES
100
AcDbCircle
 10
16.956692913385826
 20
-363.16830708661416
 30
0.0
 40
0.09842519685039369
  0
CIRCLE
  5
25A
330
17
100
AcDbEntity
  8
HOLES
100
AcDbCircle
 10
27.543307086614174
 20
-363.16830708661416
 30
0.0
 40
0.09842519685039369
  0
CIRCLE
  5
25B
330
17
100
AcDbEntity
  8
HOLES
100
AcDbCircle
 10
16.956692913385826
 20
-361.9084645669291
 30
0.0
 40
0.09842519685039369
  0
CIRCLE
  5
25C
330
17
100
AcDbEntity
  8
HOLES
100
AcDbCircle
 10
27.543307086614174
 20
-361.9084645669291
 30
0.0
 40
0.09842519685039369
  0
CIRCLE
  5
25D
330
17
100
AcDbEntity
  8
HOLES
100
AcDbCircle
 10
16.956692913385826
 20
-360.6486220472441
 30
0.0
 40
0.09842519685039369
  0
CIRCLE
  5
25E
330
17
100
AcDbEntity
  8
HOLES
100
AcDbCircle
 10
27.543307086614174
 20
-360.6486220472441
 30
0.0
 40
0.09842519685039369
  0
MTEXT
  5
25F
330
17
100
AcDbEntity
  8
LABELS
100
AcDbMText
 10
22.25
 20
-361.625
 30
0.0
 40
0.48
 71
5
  1
Divider\P13.500" x 6.000"
  0
LWPOLYLINE
  5
260
330
17
100
AcDbEntity
  8
OUTLINE
100
AcDbPolyline
 90
5
 70
0
 10
31.0
 20
-364.625
 10
41.8125
 20
-364.625
 10
41.8125
 20
-359.25
 10
31.0
 20
-359.25
 10
31.0
 20
-364.625
  0
MTEXT
  5
261
330
17
100
AcDbEntity
  8
LABELS
100
AcDbMText
 10
36.40625
 20
-361.9375
 30
0.0
 40
0.43
 71
5
  1
Drawer Box Front\P10.812" x 5.375"
  0
LWPOLYLINE
  5
262
330
17
100
AcDbEntity
  8
OUTLINE
100
AcDbPolyline
 90
5
 70
0
 10
43.8125
 20
-364.625
 10
54.625
 20
-364.625
 10
54.625
 20
-359.25
 10
43.8125
 20
-359.25
 10
43.8125
 20
-364.625
  0
MTEXT
  5
263
330
17
100
AcDbEntity
  8
LABELS
100
AcDbMText
 10
49.21875
 20
-361.9375
 30
0.0
 40
0.43
 71
5
  1
Drawer Box Front\P10.812" x 5.375"
  0
LWPOLYLINE
  5
264
330
17
100
AcDbEntity
  8
OUTLINE
100
AcDbPolyline
 90
5
 70
0
 10
0.0
 20
-372.0
 10
10.8125
 20
-372.0
 10
10.8125
 20
-366.625
 10
0.0
 20
-366.625
 10
0.0
 20
-372.0
  0
MTEXT
  5
265
330
17
100
AcDbEntity
  8
LABELS
100
AcDbMText
 10
5.40625
 20
-369.3125
 30
0.0
 40
0.43
 71
5
  1
Drawer Box Front\P10.812" x 5.375"
  0
LWPOLYLINE
  5
266
330
17
100
AcDbEntity
  8
OUTLINE
100
AcDbPolyline
 90
5
 70
0
 10
12.8125
 20
-372.0
 10
23.625
 20
-372.0
 10
23.625
 20
-366.625
 10
12.8125
 20
-366.625
 10
12.8125
 20
-372.0
  0
MTEXT
  5
267
330
17
100
AcDbEntity
  8
LABELS
100
AcDbMText
 10
18.21875
 20
-369.3125
 30
0.0
 40
0.43
 71
5
  1
Drawer Box Front\P10.812" x 5.375"
  0
LWPOLYLINE
  5
268
330
17
100
AcDbEntity
  8
OUTLINE
100
AcDbPolyline
 90
5
 70
0
 10
25.625
 20
-372.0
 10
80.625
 20
-372.0
 10
80.625
 20
-368.0
 10
25.625
 20
-368.0
 10
25.625
 20
-372.0
  0
MTEXT
  5
269
330
17
100
AcDbEntity
  8
LABELS
100
AcDbMText
 10
53.125
 20
-370.0
 30
0.0
 40
0.32
 71
5
  1
Toe Kick\P55.000" x 4.000"
  0
LWPOLYLINE
  5
26A
330
17
100
AcDbEntity
  8
OUTLINE
100
AcDbPolyline
 90
5
 70
0
 10
82.625
 20
-372.0
 10
137.625
 20
-372.0
 10
137.625
 20
-369.5
 10
82.625
 20
-369.5
 10
82.625
 20
-372.0
  0
MTEXT
  5
26B
330
17
100
AcDbEntity
  8
LABELS
100
AcDbMText
 10
110.125
 20
-370.75
 30
0.0
 40
0.2
 71
5
  1
Nailer\P55.000" x 2.500"
  0
LWPOLYLINE
  5
26C
330
17
100
AcDbEntity
  8
OUTLINE
100
AcDbPolyline
 90
5
 70
0
 10
0.0
 20
-375.5
 10
55.0
 20
-375.5
 10
55.0
 20
-374.0
 10
0.0
 20
-374.0
 10
0.0
 20
-375.5
  0
MTEXT
  5
26D
330
17
100
AcDbEntity
  8
LABELS
100
AcDbMText
 10
27.5
 20
-374.75
 30
0.0
 40
0.15
 71
5
  1
Light Rail\P55.000" x 1.500"
  0
ENDSEC
  0
SECTION
  2
OBJECTS
  0
DICTIONARY
  5
A
330
0
100
AcDbDictionary
281
1
  3
ACAD_COLOR
350
B
  3
ACAD_GROUP
350
C
  3
ACAD_LAYOUT
350
D
  3
ACAD_MATERIAL
350
E
  3
ACAD_MLEADERSTYLE
350
F
  3
ACAD_MLINESTYLE
350
10
  3
ACAD_PLOTSETTINGS
350
11
  3
ACAD_PLOTSTYLENAME
350
12
  3
ACAD_SCALELIST
350
14
  3
ACAD_TABLESTYLE
350
15
  3
ACAD_VISUALSTYLE
350
16
  3
EZDXF_META
350
2D
  0
DICTIONARY
  5
B
330
A
100
AcDbDictionary
281
1
  0
DICTIONARY
  5
C
330
A
100
AcDbDictionary
281
1
  0
DICTIONARY
  5
D
330
A
100
AcDbDictionary
281
1
  3
Model
350
1A
  3
Layout1
350
1E
  0
DICTIONARY
  5
E
330
A
100
AcDbDictionary
281
1
  3
ByBlock
350
1F
  3
ByLayer
350
20
  3
Global
350
21
  0
DICTIONARY
  5
F
330
A
100
AcDbDictionary
281
1
  3
Standard
350
2C
  0
DICTIONARY
  5
10
330
A
100
AcDbDictionary
281
1
  3
Standard
350
22
  0
DICTIONARY
  5
11
330
A
100
AcDbDictionary
281
1
  0
ACDBDICTIONARYWDFLT
  5
12
330
A
100
AcDbDictionary
281
1
  3
Normal
350
13
100
AcDbDictionaryWithDefault
340
13
  0
ACDBPLACEHOLDER
  5
13
330
12
  0
DICTIONARY
  5
14
330
A
100
AcDbDictionary
281
1
  0
DICTIONARY
  5
15
330
A
100
AcDbDictionary
281
1
  0
DICTIONARY
  5
16
330
A
100
AcDbDictionary
281
1
  0
LAYOUT
  5
1A
330
D
100
AcDbPlotSettings
  1

  4
A3
  6

 40
7.5
 41
20.0
 42
7.5
 43
20.0
 44
420.0
 45
297.0
 46
0.0
 47
0.0
 48
0.0
 49
0.0
140
0.0
141
0.0
142
1.0
143
1.0
 70
1024
 72
1
 73
0
 74
5
  7

 75
16
 76
0
 77
2
 78
300
147
1.0
148
0.0
149
0.0
100
AcDbLayout
  1
Model
 70
1
 71
0
 10
0.0
 20
0.0
 11
420.0
 21
297.0
 12
0.0
 22
0.0
 32
0.0
 14
1e+20
 24
1e+20
 34
1e+20
 15
-1e+20
 25
-1e+20
 35
-1e+20
146
0.0
 13
0.0
 23
0.0
 33
0.0
 16
1.0
 26
0.0
 36
0.0
 17
0.0
 27
1.0
 37
0.0
 76
1
330
17
  0
LAYOUT
  5
1E
330
D
100
AcDbPlotSettings
  1

  4
A3
  6

 40
7.5
 41
20.0
 42
7.5
 43
20.0
 44
420.0
 45
297.0
 46
0.0
 47
0.0
 48
0.0
 49
0.0
140
0.0
141
0.0
142
1.0
143
1.0
 70
0
 72
1
 73
0
 74
5
  7

 75
16
 76
0
 77
2
 78
300
147
1.0
148
0.0
149
0.0
100
AcDbLayout
  1
Layout1
 70
1
 71
1
 10
0.0
 20
0.0
 11
420.0
 21
297.0
 12
0.0
 22
0.0
 32
0.0
 14
1e+20
 24
1e+20
 34
1e+20
 15
-1e+20
 25
-1e+20
 35
-1e+20
146
0.0
 13
0.0
 23
0.0
 33
0.0
 16
1.0
 26
0.0
 36
0.0
 17
0.0
 27
1.0
 37
0.0
 76
1
330
1B
  0
MATERIAL
  5
1F
102
{ACAD_REACTORS
330
E
102
}
330
E
100
AcDbMaterial
  1
ByBlock
  2

 70
0
 40
1.0
 71
1
 41
1.0
 91
-1023410177
 42
1.0
 72
1
  3

 73
1
 74
1
 75
1
 44
0.5
 73
0
 45
1.0
 46
1.0
 77
1
  4

 78
1
 79
1
170
1
 48
1.0
171
1
  6

172
1
173
1
174
1
140
1.0
141
1.0
175
1
  7

176
1
177
1
178
1
143
1.0
179
1
  8

270
1
271
1
272
1
145
1.0
146
1.0
273
1
  9

274
1
275
1
276
1
 42
1.0
 72
1
  3

 73
1
 74
1
 75
1
 94
63
  0
MATERIAL
  5
20
102
{ACAD_REACTORS
330
E
102
}
330
E
100
AcDbMaterial
  1
ByLayer
  2

 70
0
 40
1.0
 71
1
 41
1.0
 91
-1023410177
 42
1.0
 72
1
  3

 73
1
 74
1
 75
1
 44
0.5
 73
0
 45
1.0
 46
1.0
 77
1
  4

 78
1
 79
1
170
1
 48
1.0
171
1
  6

172
1
173
1
174
1
140
1.0
141
1.0
175
1
  7

176
1
177
1
178
1
143
1.0
179
1
  8

270
1
271
1
272
1
145
1.0
146
1.0
273
1
  9

274
1
275
1
276
1
 42
1.0
 72
1
  3

 73
1
 74
1
 75
1
 94
63
  0
MATERIAL
  5
21
102
{ACAD_REACTORS
330
E
102
}
330
E
100
AcDbMaterial
  1
Global
  2

 70
0
 40
1.0
 71
1
 41
1.0
 91
-1023410177
 42
1.0
 72
1
  3

 73
1
 74
1
 75
1
 44
0.5
 73
0
 45
1.0
 46
1.0
 77
1
  4

 78
1
 79
1
170
1
 48
1.0
171
1
  6

172
1
173
1
174
1
140
1.0
141
1.0
175
1
  7

176
1
177
1
178
1
143
1.0
179
1
  8

270
1
271
1
272
1
145
1.0
146
1.0
273
1
  9

274
1
275
1
276
1
 42
1.0
 72
1
  3

 73
1
 74
1
 75
1
 94
63
  0
MLINESTYLE
  5
22
102
{ACAD_REACTORS
330
10
102
}
330
10
100
AcDbMlineStyle
  2
Standard
 70
0
  3

 62
256
 51
90.0
 52
90.0
 71
2
 49
0.5
 62
256
  6
BYLAYER
 49
-0.5
 62
256
  6
BYLAYER
  0
MLEADERSTYLE
  5
2C
102
{ACAD_REACTORS
330
F
102
}
330
F
100
AcDbMLeaderStyle
179
2
170
2
171
1
172
0
 90
2
 40
0.0
 41
0.0
173
1
 91
-1056964608
 92
-2
290
1
 42
2.0
291
1
 43
8.0
  3
Standard
 44
4.0
300

342
29
174
1
175
1
176
0
178
1
 93
-1056964608
 45
4.0
292
0
297
0
 46
4.0
 94
-1056964608
 47
1.0
 49
1.0
140
1.0
294
1
141
0.0
177
0
142
1.0
295
0
296
0
143
3.75
271
0
272
9
273
9
  0
DICTIONARY
  5
2D
330
A
100
AcDbDictionary
280
1
281
1
  3
CREATED_BY_EZDXF
350
2E
  3
WRITTEN_BY_EZDXF
350
270
  0
DICTIONARYVAR
  5
2E
330
2D
100
DictionaryVariables
280
0
  1
1.4.3 @ 2025-12-29T19:13:33.298385+00:00
  0
DICTIONARYVAR
  5
270
330
2D
100
DictionaryVariables
280
0
  1
1.4.3 @ 2025-12-29T19:13:33.307550+00:00
  0
ENDSEC
  0
EOF
